<svg width="535" height="535" viewBox="0 0 535 535" fill="none" xmlns="http://www.w3.org/2000/svg">
<path d="M535 267.5L460.792 193.291C453.408 185.908 445.089 180.026 436.224 175.594C442.929 162.419 446.435 147.874 446.435 132.772V88.5647H402.228C387.126 88.5647 372.581 92.0707 359.406 98.7762C354.974 89.9111 349.092 81.592 341.709 74.2081L267.5 0L193.291 74.2081C185.907 81.5928 180.025 89.9131 175.593 98.7793C162.416 92.0718 147.868 88.5647 132.764 88.5647H88.5569V132.772C88.5569 147.875 92.0636 162.421 98.77 175.597C89.9072 180.029 81.5901 185.909 74.2081 193.291L0 267.5L74.2081 341.709C81.5902 349.091 89.9072 354.971 98.7701 359.403C92.0636 372.579 88.557 387.125 88.557 402.228V446.435H132.765C147.868 446.435 162.416 442.928 175.593 436.221C180.025 445.087 185.907 453.407 193.291 460.792L267.5 535L341.709 460.792C349.092 453.408 354.974 445.089 359.406 436.224C372.581 442.929 387.126 446.435 402.228 446.435H446.435V402.228C446.435 387.126 442.929 372.581 436.224 359.406C445.089 354.974 453.408 349.092 460.792 341.709L535 267.5ZM402.228 109.616H425.384V132.772C425.384 145.367 422.251 157.461 416.277 168.274C399.363 164.173 381.538 164.8 364.894 170.106C370.2 153.462 370.827 135.637 366.726 118.723C377.539 112.749 389.633 109.616 402.228 109.616ZM267.5 332.759C231.516 332.759 202.241 303.484 202.241 267.5C202.241 231.516 231.516 202.241 267.5 202.241C303.484 202.241 332.759 231.516 332.759 267.5C332.759 303.484 303.484 332.759 267.5 332.759ZM208.177 89.094L267.5 29.7708L326.823 89.094C355.55 117.821 355.55 164.564 326.823 193.291L320.59 199.524C305.935 188.053 287.51 181.19 267.5 181.19C247.49 181.19 229.065 188.053 214.41 199.524L208.177 193.291C179.45 164.564 179.45 117.821 208.177 89.094ZM109.608 132.772V109.616H132.765C145.362 109.616 157.458 112.75 168.273 118.727C164.173 135.64 164.8 153.463 170.106 170.106C153.46 164.799 135.632 164.173 118.716 168.276C112.741 157.462 109.608 145.368 109.608 132.772ZM29.7708 267.5L89.094 208.177C117.821 179.45 164.565 179.45 193.291 208.177L199.524 214.41C188.053 229.065 181.19 247.49 181.19 267.5C181.19 287.51 188.053 305.935 199.524 320.59L193.291 326.823C164.565 355.55 117.821 355.55 89.094 326.823L29.7708 267.5ZM132.765 425.384H109.608V402.228C109.608 389.632 112.741 377.538 118.716 366.724C126.092 368.513 133.642 369.41 141.193 369.41C150.959 369.41 160.718 367.887 170.107 364.893C164.8 381.537 164.173 399.36 168.273 416.273C157.458 422.25 145.362 425.384 132.765 425.384ZM326.823 445.906L267.5 505.229L208.177 445.906C179.45 417.179 179.45 370.436 208.177 341.709L214.41 335.476C229.065 346.947 247.49 353.81 267.5 353.81C287.51 353.81 305.935 346.947 320.59 335.476L326.823 341.709C355.55 370.436 355.55 417.179 326.823 445.906ZM425.384 402.228V425.384H402.228C389.633 425.384 377.539 422.251 366.726 416.277C370.827 399.363 370.2 381.538 364.893 364.893C374.282 367.887 384.041 369.41 393.807 369.41C401.355 369.41 408.903 368.514 416.277 366.726C422.251 377.539 425.384 389.633 425.384 402.228ZM341.709 326.823L335.476 320.59C346.947 305.935 353.81 287.51 353.81 267.5C353.81 247.49 346.947 229.065 335.476 214.41L341.709 208.177C370.435 179.45 417.18 179.45 445.906 208.177L505.229 267.5L445.906 326.823C417.18 355.55 370.435 355.55 341.709 326.823Z" fill="#382D2D" fill-opacity="0.4"/>
<path d="M267.499 223.293C243.123 223.293 223.291 243.124 223.291 267.5C223.291 291.876 243.123 311.708 267.499 311.708C291.874 311.708 311.706 291.876 311.706 267.5C311.706 243.124 291.874 223.293 267.499 223.293ZM267.499 290.657C254.73 290.657 244.342 280.269 244.342 267.5C244.342 254.732 254.73 244.344 267.499 244.344C280.267 244.344 290.655 254.732 290.655 267.5C290.655 280.269 280.267 290.657 267.499 290.657Z" fill="#382D2D" fill-opacity="0.4"/>
</svg>
