<svg width="512" height="512" viewBox="0 0 512 512" fill="none" xmlns="http://www.w3.org/2000/svg">
<g clip-path="url(#clip0_1_56)">
<mask id="mask0_1_56" style="mask-type:luminance" maskUnits="userSpaceOnUse" x="0" y="0" width="1582" height="512">
<path d="M1581.71 0H0V512H1581.71V0Z" fill="white"/>
</mask>
<g mask="url(#mask0_1_56)">
<path d="M511.919 255.988C511.919 115.332 397.612 1.27887 256.598 1.27887C115.584 1.27887 1.27679 115.332 1.27679 255.988C1.27679 396.642 115.584 510.695 256.598 510.695C397.612 510.695 511.919 396.642 511.919 255.988ZM489.936 255.988C489.936 384.569 385.459 488.826 256.598 488.826C127.737 488.826 23.2599 384.594 23.2599 255.988C23.2599 127.38 127.737 23.1739 256.598 23.1739C385.459 23.1739 489.936 127.431 489.936 256.012V255.988Z" fill="#CC982C"/>
<path d="M208.393 288.011C201.908 284.763 191.568 282.051 190.546 281.77C156.869 272.587 144.997 271.027 117.907 254.427C101.465 244.349 88.8262 227.672 80.3751 216.315C75.4729 209.742 69.8558 203.296 63.192 199.229C62.0686 198.436 56.0941 196.569 57.2175 195.674C62.9111 191.197 71.6431 188.896 77.9496 187.207C88.5195 184.368 100.01 183.14 111.039 183.729C166.75 187.923 221.236 238.645 230.887 293.638C231.219 295.889 231.27 296.784 229.968 293.894C212.938 256.346 175.074 230.87 135.83 214.448C128.733 211.481 119.465 208.745 111.013 207.44C102.639 206.135 103.099 213.425 110.069 215.727C147.626 231.841 191.823 250.257 210.41 289.162L208.393 288.037V288.011Z" fill="#CC982C"/>
<path d="M312.462 288.011C318.948 284.763 329.287 282.051 330.309 281.77C363.986 272.587 375.859 271.027 402.948 254.427C419.39 244.349 432.029 227.672 440.48 216.315C445.383 209.742 451 203.296 457.663 199.229C458.787 198.436 464.761 196.569 463.638 195.674C457.944 191.197 449.212 188.896 442.906 187.207C432.336 184.368 420.846 183.14 409.816 183.729C354.105 187.923 299.62 238.645 289.968 293.638C289.637 295.889 289.585 296.784 290.887 293.894C307.917 256.346 345.782 230.87 385.025 214.448C392.122 211.481 401.391 208.745 409.842 207.44C418.216 206.135 417.756 213.425 410.786 215.727C373.229 231.841 329.032 250.257 310.445 289.162L312.462 288.037V288.011Z" fill="#CC982C"/>
<path d="M243.525 272.024C243.653 249.055 241.278 226.009 235.508 203.756C230.351 183.856 222.333 160.657 210.436 143.699C198.563 126.74 184.929 114.846 164.861 106.942C158.529 104.461 151.712 103.413 145.048 102.083C141.601 101.392 138.129 100.727 134.682 99.9599C133.584 99.7293 124.265 98.1433 124.162 97.325C127.584 123.492 128.605 156.283 147.601 174.367C150.92 177.513 154.877 181.299 159.32 184.65C171.499 193.781 184.674 201.659 196.189 211.686C198.308 213.553 200.376 215.497 202.342 217.518C204.308 219.538 206.657 222.147 207.985 223.989C208.036 222.198 207.474 218.771 206.964 216.341C206.376 213.476 205.406 210.1 204.436 207.363C199.61 193.551 192.588 181.504 184.674 169.405C180.206 162.575 175.278 156.078 169.917 149.965C166.649 146.231 162.921 142.726 159.601 138.967C157.457 136.537 152.886 131.191 156.333 128.045C160.572 124.182 169.227 132.751 173.772 137.407C187.993 151.961 199.865 166.924 209.746 184.7C213.448 191.351 216.614 199.843 219.219 207.005C222.87 217.057 225.27 227.519 228.589 237.673C230.351 243.019 232.776 248.134 234.921 253.327C237.551 259.721 240.359 265.911 243.525 272.024Z" fill="#CC982C"/>
<path d="M277.177 272.024C277.049 249.055 279.424 226.009 285.194 203.756C290.351 183.856 298.369 160.657 310.266 143.699C322.139 126.74 335.773 114.846 355.842 106.942C362.174 104.461 368.991 103.413 375.654 102.083C379.101 101.392 382.574 100.727 386.021 99.9599C387.119 99.7293 396.438 98.1433 396.54 97.325C393.118 123.492 392.097 156.283 373.101 174.367C369.782 177.513 365.825 181.299 361.382 184.65C349.203 193.781 336.028 201.659 324.513 211.686C322.395 213.553 320.326 215.497 318.36 217.518C316.394 219.538 314.046 222.147 312.717 223.989C312.667 222.198 313.229 218.771 313.739 216.341C314.326 213.476 315.296 210.1 316.266 207.363C321.092 193.551 328.114 181.504 336.028 169.405C340.497 162.575 345.425 156.078 350.786 149.965C354.054 146.231 357.782 142.726 361.101 138.967C363.246 136.537 367.816 131.191 364.369 128.045C360.131 124.182 351.476 132.751 346.931 137.407C332.709 151.961 320.837 166.924 310.956 184.7C307.254 191.351 304.088 199.843 301.483 207.005C297.833 217.057 295.432 227.519 292.113 237.673C290.351 243.019 287.926 248.134 285.782 253.327C283.152 259.721 280.343 265.911 277.177 272.024Z" fill="#CC982C"/>
<path d="M258.896 50.261C258.896 50.261 262.904 55.9908 274.087 68.9334C279.577 75.2767 283.942 82.6432 287.338 90.291C291.424 99.5245 294.104 109.424 294.768 119.502C295.228 126.28 294.845 133.391 293.211 140.041C291.143 148.584 288.768 154.697 286.827 158.918C284.53 163.931 281.9 168.765 279.781 173.855C277.79 178.587 275.849 183.319 274.139 188.128C273.219 190.736 272.351 193.397 271.559 196.057C269.517 202.988 268.292 206.135 265.713 216.392C264.794 220.101 262.777 226.879 262.087 236.189C262.036 236.726 256.623 222.352 255.092 217.031C251.747 205.265 248.224 196.517 244.981 186.9C242.657 179.968 240.487 175.646 237.602 168.97C235.023 163.036 232.598 157.025 230.3 150.963C228.207 145.463 227.236 139.58 226.623 133.723C225.449 122.212 225.525 110.447 228.64 99.3713C231.193 90.291 234.41 81.8502 241.279 72.3862C242.759 70.3398 246.283 65.7357 250.725 60.5179C252.129 58.8553 253.764 57.0395 255.194 55.4025C255.909 54.584 256.573 53.7396 257.211 52.87C257.415 52.5882 258.282 51.2583 258.87 50.261H258.896ZM262.573 89.1396C256.982 86.0959 254.478 92.3115 254.095 98.0667L254.07 98.0418V98.2715C253.279 112.263 254.146 126.689 254.249 140.706C254.377 155.208 254.478 169.712 254.478 184.214C254.504 192.246 253.508 221.738 258.513 223.017C260.249 223.452 261.729 222.658 262.827 221.993C264.513 220.97 264.309 218.464 264.309 216.161C264.334 200.354 265.815 113.107 265.765 104.538C265.739 99.8833 266.964 91.519 262.573 89.1396Z" fill="#CC982C"/>
<path d="M260.453 307.143C268.942 307.143 275.823 300.25 275.823 291.746C275.823 283.242 268.942 276.348 260.453 276.348C251.965 276.348 245.083 283.242 245.083 291.746C245.083 300.25 251.965 307.143 260.453 307.143Z" fill="#CC982C"/>
<path d="M95.6692 315.763C119.286 308.039 145.431 308.321 169.431 313.743C193.84 319.268 216.973 329.218 239.747 339.398C249.5 343.746 259.227 348.146 269.058 352.315C297.832 364.465 328.879 375.514 360.564 374.159C389.595 372.906 412.599 364.644 435.169 346.56C435.246 346.509 435.297 346.457 435.374 346.407C446.046 337.838 454.548 325.969 460.497 313.615C466.242 301.695 469.587 289.75 471.808 276.834C472.344 273.713 473.008 270.567 473.391 267.421C468.413 281.412 459.578 298.217 448.421 311.875C437.953 324.69 424.523 334.973 414.565 340.523C387.475 355.614 356.045 358.173 325.943 352.673C310.7 349.885 295.816 345.23 281.416 339.5C266.249 333.464 251.976 325.714 237.245 318.73C226.853 313.794 216.359 308.986 205.585 304.944C196.444 301.44 187.151 298.344 177.704 295.838C166.649 292.896 155.082 291.336 143.669 290.569C134.478 289.955 125.184 290.262 116.044 291.465C115.941 291.465 115.814 291.49 115.712 291.515C105.32 292.896 95.1074 295.531 85.3287 299.317C77.4136 302.386 69.805 306.198 62.5794 310.648C58.8517 312.95 55.2261 315.508 51.8304 318.296C54.4857 324.332 56.5794 329.192 59.2092 334.743C64.7752 330.957 70.1369 327.913 76.0604 324.511C82.3157 320.905 88.8777 318.04 95.6435 315.815L95.6692 315.763Z" fill="#CC982C"/>
<path d="M101.644 360.449C124.418 351.113 147.754 349.271 171.882 354.361C206.223 361.6 236.989 379.709 269.058 393.24C288.717 401.528 308.632 409.968 329.824 413.37C351.399 416.823 373.637 414.47 394.318 407.513C401.212 405.185 407.927 402.244 414.284 398.637C425.952 391.987 435.68 382.369 443.646 371.626C451.715 360.756 457.996 348.555 461.493 335.485C450.464 352.852 435.195 367.074 417.399 377.254C398.761 387.945 378.872 394.213 357.297 394.647C336.335 395.082 318.998 390.631 299.16 384.109C279.398 377.612 260.428 368.966 241.79 359.784C189.729 334.129 154.929 330.753 126.997 333.106C105.474 334.922 89.669 342.314 75.32 351.727C74.6562 352.161 72.2562 353.722 69.4476 355.717C72.2817 361.549 75.371 367.201 78.7157 372.726C79.6605 372.036 81.5499 370.884 81.9329 370.603C88.0091 366.383 94.7499 363.263 101.593 360.449H101.644Z" fill="#CC982C"/>
<path d="M241.814 401.629C192.921 374.568 139.737 361.498 89.95 390.605C94.0094 396.233 98.3497 401.681 102.945 406.874C102.945 406.874 106.239 404.699 109.941 403.113C113.261 401.681 116.63 400.427 120.052 399.277C124.341 397.819 128.835 396.898 133.303 396.105C134.222 395.926 135.167 395.773 136.086 395.619C146.887 393.751 157.891 393.598 168.767 394.903C191.312 397.64 212.912 406.516 232.879 416.951C254.07 428.026 275.951 438.923 299.185 444.985L299.542 445.087C309.245 447.594 319.356 448.617 329.364 448.054C345.194 447.159 360.718 442.222 374.02 433.577L374.403 433.321C329.288 439.281 281.288 423.448 241.814 401.604V401.629Z" fill="#CC982C"/>
<path d="M104.018 166.284C112.507 166.284 119.388 159.39 119.388 150.886C119.388 142.382 112.507 135.488 104.018 135.488C95.5295 135.488 88.6475 142.382 88.6475 150.886C88.6475 159.39 95.5295 166.284 104.018 166.284Z" fill="#CC982C"/>
<path d="M69.6265 270.464C78.1153 270.464 84.997 263.571 84.997 255.067C84.997 246.563 78.1153 239.668 69.6265 239.668C61.1377 239.668 54.2562 246.563 54.2562 255.067C54.2562 263.571 61.1377 270.464 69.6265 270.464Z" fill="#CC982C"/>
<path d="M195.908 96.4042C204.397 96.4042 211.278 89.5101 211.278 81.0062C211.278 72.5021 204.397 65.6081 195.908 65.6081C187.419 65.6081 180.537 72.5021 180.537 81.0062C180.537 89.5101 187.419 96.4042 195.908 96.4042Z" fill="#CC982C"/>
<path d="M322.905 96.4042C331.394 96.4042 338.275 89.5101 338.275 81.0062C338.275 72.5021 331.394 65.6081 322.905 65.6081C314.416 65.6081 307.534 72.5021 307.534 81.0062C307.534 89.5101 314.416 96.4042 322.905 96.4042Z" fill="#CC982C"/>
<path d="M415.893 162.242C424.382 162.242 431.263 155.349 431.263 146.845C431.263 138.341 424.382 131.447 415.893 131.447C407.404 131.447 400.522 138.341 400.522 146.845C400.522 155.349 407.404 162.242 415.893 162.242Z" fill="#CC982C"/>
<path d="M448.395 270.464C456.883 270.464 463.766 263.571 463.766 255.067C463.766 246.563 456.883 239.668 448.395 239.668C439.906 239.668 433.025 246.563 433.025 255.067C433.025 263.571 439.906 270.464 448.395 270.464Z" fill="#CC982C"/>
<path d="M381.986 325.662C394.324 325.662 404.326 315.642 404.326 303.281C404.326 290.921 394.324 280.901 381.986 280.901C369.647 280.901 359.645 290.921 359.645 303.281C359.645 315.642 369.647 325.662 381.986 325.662Z" fill="#CC982C"/>
<path d="M511.919 255.988C511.919 115.332 397.612 1.27887 256.598 1.27887C115.584 1.27887 1.27679 115.332 1.27679 255.988C1.27679 396.642 115.584 510.695 256.598 510.695C397.612 510.695 511.919 396.642 511.919 255.988ZM489.936 255.988C489.936 384.569 385.459 488.826 256.598 488.826C127.737 488.826 23.2599 384.594 23.2599 255.988C23.2599 127.38 127.737 23.1739 256.598 23.1739C385.459 23.1739 489.936 127.431 489.936 256.012V255.988Z" fill="#CC982C" stroke="#CC982C" stroke-miterlimit="10"/>
</g>
</g>
<defs>
<clipPath id="clip0_1_56">
<rect width="512" height="512" fill="white"/>
</clipPath>
</defs>
</svg>
