<svg width="60" height="61" viewBox="0 0 60 61" fill="none" xmlns="http://www.w3.org/2000/svg">
<path fill-rule="evenodd" clip-rule="evenodd" d="M10.2536 36.2319C10.5797 37.3188 10.9783 38.3333 11.4493 39.3116C9.74638 40.5072 8.65942 42.5 8.65942 44.7101C8.65942 48.3696 11.6304 51.3406 15.2899 51.3406C17.5 51.3406 19.4928 50.2536 20.6884 48.5507C21.6667 49.0217 22.7174 49.4203 23.7681 49.7464C23.0797 50.7971 22.6812 52.0652 22.6812 53.4058C22.6812 57.0652 25.6522 60.0362 29.3116 60.0362V42.5725C22.971 42.0652 17.9348 37.029 17.4275 30.6884H0C0 34.3478 2.97101 37.3188 6.63043 37.3188C7.97101 37.3551 9.23913 36.9203 10.2536 36.2319Z" fill="url(#paint0_linear_18611_627)"/>
<path fill-rule="evenodd" clip-rule="evenodd" d="M49.7101 36.2319C49.3841 37.3188 48.9855 38.3333 48.5145 39.3116C50.2174 40.5072 51.3043 42.5 51.3043 44.7101C51.3043 48.3696 48.3333 51.3406 44.6739 51.3406C42.4638 51.3406 40.471 50.2536 39.2754 48.5507C38.2971 49.0217 37.2464 49.4203 36.1956 49.7464C36.8841 50.7971 37.2826 52.0652 37.2826 53.4058C37.2826 57.0652 34.3116 60.0362 30.6522 60.0362V42.5725C36.9928 42.0652 42.029 37.029 42.5362 30.6884H60C60 34.3478 57.029 37.3188 53.3696 37.3188C52.029 37.3551 50.7609 36.9203 49.7101 36.2319Z" fill="url(#paint1_linear_18611_627)"/>
<path fill-rule="evenodd" clip-rule="evenodd" d="M10.2536 23.8043C10.5797 22.7174 10.9783 21.7029 11.4493 20.7246C9.74638 19.529 8.65942 17.5362 8.65942 15.3261C8.65942 11.6667 11.6304 8.69565 15.2899 8.69565C17.5 8.69565 19.4928 9.78261 20.6884 11.4855C21.6667 11.0145 22.7174 10.6159 23.7681 10.2899C23.0797 9.23913 22.6812 7.97101 22.6812 6.63043C22.6812 2.97101 25.6522 0 29.3116 0V17.4275C22.971 17.971 17.9348 23.0072 17.4275 29.3478H0C0 25.6884 2.97101 22.7174 6.63043 22.7174C7.97101 22.7174 9.23913 23.1159 10.2536 23.8043Z" fill="url(#paint2_linear_18611_627)"/>
<path fill-rule="evenodd" clip-rule="evenodd" d="M49.7101 23.8043C49.3841 22.7174 48.9855 21.7029 48.5145 20.7246C50.2174 19.529 51.3043 17.5362 51.3043 15.3261C51.3043 11.6667 48.3333 8.69565 44.6739 8.69565C42.4638 8.69565 40.471 9.78261 39.2754 11.4855C38.2971 11.0145 37.2464 10.6159 36.1956 10.2899C36.8841 9.23913 37.2826 7.97101 37.2826 6.63043C37.2826 2.97101 34.3116 0 30.6522 0V17.4275C36.9928 17.9348 42.029 22.971 42.5362 29.3116H60C60 25.6522 57.029 22.6812 53.3696 22.6812C52.029 22.7174 50.7609 23.1159 49.7101 23.8043Z" fill="url(#paint3_linear_18611_627)"/>
<path fill-rule="evenodd" clip-rule="evenodd" d="M30 40.942C34.4928 40.942 38.1522 37.2826 38.1522 32.7899C38.1522 28.2971 34.4928 24.6377 30 24.6377C25.5072 24.6377 21.8478 28.2971 21.8478 32.7899C21.8116 37.2826 25.5072 40.942 30 40.942Z" fill="url(#paint4_linear_18611_627)"/>
<defs>
<linearGradient id="paint0_linear_18611_627" x1="49.4834" y1="60.0362" x2="-4.50574" y2="51.1911" gradientUnits="userSpaceOnUse">
<stop stop-color="#D35355"/>
<stop offset="1" stop-color="#D96B2F"/>
</linearGradient>
<linearGradient id="paint1_linear_18611_627" x1="49.4834" y1="60.0362" x2="-4.50574" y2="51.1911" gradientUnits="userSpaceOnUse">
<stop stop-color="#D35355"/>
<stop offset="1" stop-color="#D96B2F"/>
</linearGradient>
<linearGradient id="paint2_linear_18611_627" x1="49.4834" y1="60.0362" x2="-4.50574" y2="51.1911" gradientUnits="userSpaceOnUse">
<stop stop-color="#D35355"/>
<stop offset="1" stop-color="#D96B2F"/>
</linearGradient>
<linearGradient id="paint3_linear_18611_627" x1="49.4834" y1="60.0362" x2="-4.50574" y2="51.1911" gradientUnits="userSpaceOnUse">
<stop stop-color="#D35355"/>
<stop offset="1" stop-color="#D96B2F"/>
</linearGradient>
<linearGradient id="paint4_linear_18611_627" x1="49.4834" y1="60.0362" x2="-4.50574" y2="51.1911" gradientUnits="userSpaceOnUse">
<stop stop-color="#D35355"/>
<stop offset="1" stop-color="#D96B2F"/>
</linearGradient>
</defs>
</svg>
