<svg width="60" height="61" viewBox="0 0 60 61" fill="none" xmlns="http://www.w3.org/2000/svg">
<path d="M58.3535 26.0341C57.2868 24.9674 55.8853 24.3845 54.3845 24.3845C48.7039 24.3845 43.0977 25.3023 37.7147 27.1256L35.2093 27.969C35.0605 28.0186 34.9736 27.8078 35.1101 27.7457L37.4915 26.5674C42.5891 24.0496 47.2031 20.738 51.2217 16.7194C52.276 15.6651 52.8589 14.2884 52.8713 12.8248C52.9085 9.74884 50.4031 7.1814 47.3271 7.13178C45.8015 7.10698 44.3628 7.70233 43.2837 8.7814C39.2651 12.8 35.9535 17.414 33.4357 22.5116L32.2574 24.893C32.1829 25.0295 31.9845 24.9426 32.0341 24.7938L32.8775 22.2884C34.7008 16.9054 35.6186 11.2992 35.6186 5.61861C35.6186 4.11783 35.0357 2.70388 33.969 1.64961C32.9023 0.582946 31.5008 0 30 0C28.4992 0 27.0853 0.582946 26.031 1.64961C24.9643 2.71628 24.3814 4.11783 24.3814 5.61861C24.3814 11.2992 25.2992 16.9054 27.1225 22.2884L27.9659 24.7938C28.0155 24.9426 27.8046 25.0295 27.7426 24.893L26.5643 22.5116C24.0465 17.414 20.7349 12.8 16.7163 8.7814C15.662 7.72713 14.2853 7.14419 12.8217 7.13178C9.73333 7.09457 7.16589 9.6 7.12868 12.676C7.10388 14.2016 7.69922 15.6403 8.77829 16.7194C12.7969 20.738 17.4109 24.0496 22.5085 26.5674L24.8899 27.7457C25.0264 27.8202 24.9395 28.0186 24.7907 27.969L22.2853 27.1256C16.9023 25.3023 11.2961 24.3845 5.6155 24.3845C4.11473 24.3845 2.70078 24.9674 1.64651 26.0341C-0.548837 28.2295 -0.548837 31.7891 1.64651 33.9845C2.71318 35.0512 4.11473 35.6341 5.6155 35.6341C11.2961 35.6341 16.9023 34.7163 22.2853 32.893L24.7907 32.0496C24.9395 32 25.0264 32.2109 24.8899 32.2729L22.5085 33.4512C17.4109 35.969 12.7969 39.2806 8.77829 43.2992C7.72403 44.3535 7.14109 45.7302 7.12868 47.1938C7.09147 50.2698 9.5969 52.8372 12.6729 52.8868C14.1985 52.9116 15.6372 52.3163 16.7163 51.2372C20.7349 47.2186 24.0465 42.6047 26.5643 37.507L27.7426 35.1256C27.8171 34.9891 28.0155 35.076 27.9659 35.2248L27.1225 37.7302C25.2992 43.1132 24.3814 48.7194 24.3814 54.4C24.3814 55.9008 24.9643 57.3147 26.031 58.369C27.0977 59.4357 28.4992 60.0186 30 60.0186C31.5008 60.0186 32.9147 59.4357 33.969 58.369C35.0357 57.3023 35.6186 55.9008 35.6186 54.4C35.6186 48.7194 34.7008 43.1132 32.8775 37.7302L32.0341 35.2248C31.9845 35.076 32.1953 34.9891 32.2574 35.1256L33.4357 37.507C35.9535 42.6047 39.2651 47.2186 43.2837 51.2372C44.338 52.2915 45.7147 52.8744 47.1783 52.8868C50.2543 52.924 52.8217 50.4186 52.8713 47.3426C52.8961 45.8171 52.3008 44.3783 51.2217 43.2992C47.2031 39.2806 42.5891 35.969 37.4915 33.4512L35.1101 32.2729C34.9736 32.1984 35.0605 32 35.2093 32.0496L37.7147 32.893C43.0977 34.7163 48.7039 35.6341 54.3845 35.6341C55.8853 35.6341 57.2992 35.0512 58.3535 33.9845C60.5488 31.7891 60.5488 28.2171 58.3535 26.0341Z" fill="url(#paint0_linear_18611_617)"/>
<defs>
<linearGradient id="paint0_linear_18611_617" x1="49.4834" y1="60.0186" x2="-4.50491" y2="51.171" gradientUnits="userSpaceOnUse">
<stop stop-color="#D35355"/>
<stop offset="1" stop-color="#D96B2F"/>
</linearGradient>
</defs>
</svg>
