<svg width="60" height="60" viewBox="0 0 60 60" fill="none" xmlns="http://www.w3.org/2000/svg">
<path d="M31.1412 26.052C30.4828 26.6101 29.5173 26.6101 28.8589 26.052C22.6199 20.763 19.4119 15.6302 19.4119 10.5882C19.4118 4.74047 24.1523 0 30 0C35.8477 0 40.5882 4.74047 40.5882 10.5882C40.5882 15.6302 37.3802 20.763 31.1412 26.052ZM31.1412 33.948C37.3802 39.2369 40.5882 44.3698 40.5882 49.4118C40.5882 55.2595 35.8478 60 30 60C24.1522 60 19.4118 55.2595 19.4118 49.4118C19.4118 44.3698 22.6198 39.2369 28.8588 33.948C29.5173 33.3899 30.4827 33.3899 31.1412 33.948ZM33.948 31.1412C33.3899 30.4828 33.3899 29.5173 33.948 28.8589C39.2371 22.6199 44.3699 19.4119 49.4118 19.4119C55.2595 19.4118 60 24.1522 60 30C60 35.8478 55.2595 40.5882 49.4118 40.5882C44.3698 40.5882 39.2369 37.3802 33.948 31.1412ZM26.052 31.1412C20.7629 37.3802 15.6301 40.5882 10.5882 40.5882C4.74047 40.5882 0 35.8478 0 30C0 24.1522 4.74047 19.4118 10.5882 19.4118C15.6302 19.4118 20.763 22.6198 26.052 28.8588C26.6101 29.5173 26.6101 30.4827 26.052 31.1412Z" fill="url(#paint0_linear_18611_606)"/>
<defs>
<linearGradient id="paint0_linear_18611_606" x1="49.4834" y1="60" x2="-4.50403" y2="51.1498" gradientUnits="userSpaceOnUse">
<stop stop-color="#D35355"/>
<stop offset="1" stop-color="#D96B2F"/>
</linearGradient>
</defs>
</svg>
