<svg width="16" height="16" viewBox="0 0 16 16" fill="none" xmlns="http://www.w3.org/2000/svg">
<path d="M8.41342 0C4.87799 0 2 2.87799 2 6.41342C2 6.81593 2.0369 7.2218 2.11405 7.61761C2.1174 7.64109 2.13082 7.71153 2.15765 7.83228C2.25493 8.26499 2.39916 8.69099 2.587 9.09686C3.27799 10.7237 4.79748 13.2226 8.13166 15.8994C8.21551 15.9665 8.31614 16 8.41677 16C8.5174 16 8.61803 15.9665 8.70189 15.8994C12.0327 13.2226 13.5556 10.7237 14.2465 9.09686C14.4344 8.69099 14.5786 8.26834 14.6759 7.83228C14.7027 7.71153 14.7161 7.64109 14.7195 7.61761C14.7933 7.2218 14.8335 6.81593 14.8335 6.41342C14.8268 2.87799 11.9488 0 8.41342 0ZM13.8205 7.45996C13.8205 7.46667 13.8172 7.47337 13.8172 7.48008C13.8138 7.49686 13.8038 7.54717 13.787 7.62432C13.787 7.62767 13.787 7.62767 13.787 7.63103C13.7031 8.00671 13.579 8.37233 13.4147 8.72453C13.4113 8.72788 13.4113 8.73459 13.408 8.73795C12.7807 10.2239 11.4054 12.4914 8.41342 14.9635C5.42138 12.4914 4.04612 10.2239 3.41887 8.73795C3.41551 8.73459 3.41551 8.72788 3.41216 8.72453C3.25115 8.37568 3.12704 8.00671 3.03983 7.63103C3.03983 7.62767 3.03983 7.62767 3.03983 7.62432C3.01971 7.54717 3.013 7.49686 3.00964 7.48008C3.00964 7.47337 3.00629 7.46667 3.00629 7.4566C2.9392 7.11111 2.90566 6.76226 2.90566 6.41006C2.90566 3.37442 5.37778 0.902306 8.41342 0.902306C11.4491 0.902306 13.9212 3.37442 13.9212 6.41006C13.9212 6.76562 13.8876 7.11782 13.8205 7.45996Z" fill="#DCD1C7"/>
<path d="M8.41391 2.41171C6.16989 2.41171 4.3418 4.2398 4.3418 6.48383C4.3418 8.72786 6.16989 10.5559 8.41391 10.5559C10.6579 10.5559 12.486 8.72786 12.486 6.48383C12.486 4.2398 10.6579 2.41171 8.41391 2.41171ZM8.41391 9.65029C6.66633 9.65029 5.24746 8.22807 5.24746 6.48383C5.24746 4.7396 6.66968 3.31737 8.41391 3.31737C10.1581 3.31737 11.5804 4.7396 11.5804 6.48383C11.5804 8.22807 10.1615 9.65029 8.41391 9.65029Z" fill="#DCD1C7"/>
</svg>
