<svg width="1903" height="615" viewBox="0 0 1903 615" fill="none" xmlns="http://www.w3.org/2000/svg">
<g clip-path="url(#clip0_240_31)">
<path d="M683.114 500.338V452.931H664.314V447.309H709.47V452.931H690.671V500.338H683.145H683.114Z" fill="#CC982C"/>
<path d="M716.935 500.338V447.309H724.461V469.676H749.681V447.309H757.207V500.338H749.681V475.298H724.461V500.338H716.935Z" fill="#CC982C"/>
<path d="M764.61 500.338L785.683 447.309H793.116L813.851 500.338H805.711L799.936 485.652H777.419L771.583 500.338H764.579H764.61ZM779.662 480.03H797.724L788.724 457.202L779.662 480.03Z" fill="#CC982C"/>
<path d="M821.438 500.338V447.309H828.964V500.338H821.438Z" fill="#CC982C"/>
<path d="M872.8 500.338L859.1 447.309H866.318L877.223 489.216L887.207 447.309H894.487L903.918 488.632L915.621 447.309H921.734L906.836 500.338H899.341L890.002 459.445L880.234 500.338H872.831H872.8Z" fill="#CC982C"/>
<path d="M928.646 500.338V447.309H958.35V452.931H936.172V469.952H954.756V475.513H936.172V494.716H959.886V500.338H928.646Z" fill="#CC982C"/>
<path d="M968.395 500.338V447.309H975.921V494.716H999.451V500.338H968.395Z" fill="#CC982C"/>
<path d="M1007.53 500.338V447.309H1015.06V494.716H1038.59V500.338H1007.53Z" fill="#CC982C"/>
<path d="M1046.67 500.338V447.309H1054.07L1080.67 488.233V447.309H1087.15V500.338H1079.78L1053.15 459.414V500.338H1046.67Z" fill="#CC982C"/>
<path d="M1100.88 500.338V447.309H1130.59V452.931H1108.41V469.952H1126.99V475.513H1108.41V494.716H1132.12V500.338H1100.88Z" fill="#CC982C"/>
<path d="M1137.44 499.324V491.859C1141.71 493.825 1144.84 494.992 1146.81 495.423C1148.77 495.822 1150.62 496.037 1152.27 496.037C1155.32 496.037 1157.74 495.207 1159.49 493.548C1161.28 491.889 1162.14 489.892 1162.14 487.588C1162.14 485.837 1161.67 484.239 1160.75 482.734C1159.8 481.29 1157.47 479.508 1153.75 477.388L1150.06 475.268C1145.18 472.502 1141.89 469.952 1140.2 467.679C1138.51 465.375 1137.68 462.824 1137.68 460.059C1137.68 457.54 1138.36 455.205 1139.68 452.993C1141 450.781 1142.81 449.06 1145.06 447.831C1147.3 446.602 1150.12 445.957 1153.53 445.957C1157.65 445.957 1161.98 446.633 1166.53 448.016V454.898C1162.57 453.331 1159.83 452.409 1158.36 452.071C1156.88 451.764 1155.41 451.58 1153.93 451.58C1150.86 451.58 1148.59 452.378 1147.08 453.976C1145.61 455.574 1144.87 457.202 1144.87 458.892C1144.87 460.029 1145.21 461.196 1145.92 462.394C1146.62 463.593 1147.54 464.606 1148.74 465.436C1149.91 466.296 1151.54 467.31 1153.6 468.478L1157.4 470.628C1162.35 473.424 1165.64 475.974 1167.3 478.309C1168.95 480.644 1169.78 483.348 1169.78 486.359C1169.78 490.507 1168.22 494.071 1165.05 497.112C1161.89 500.154 1157.25 501.659 1151.11 501.659C1149.2 501.659 1147.39 501.537 1145.61 501.291C1143.83 501.045 1141.09 500.4 1137.38 499.324H1137.44Z" fill="#CC982C"/>
<path d="M1176.94 499.324V491.859C1181.21 493.825 1184.34 494.992 1186.31 495.423C1188.28 495.822 1190.12 496.037 1191.78 496.037C1194.82 496.037 1197.25 495.207 1199 493.548C1200.78 491.889 1201.64 489.892 1201.64 487.588C1201.64 485.837 1201.18 484.239 1200.26 482.734C1199.3 481.29 1196.97 479.508 1193.25 477.388L1189.57 475.268C1184.68 472.502 1181.4 469.952 1179.71 467.679C1178.02 465.375 1177.19 462.824 1177.19 460.059C1177.19 457.54 1177.86 455.205 1179.18 452.993C1180.51 450.781 1182.32 449.06 1184.56 447.831C1186.8 446.602 1189.63 445.957 1193.04 445.957C1197.15 445.957 1201.49 446.633 1206.03 448.016V454.898C1202.07 453.331 1199.34 452.409 1197.86 452.071C1196.39 451.764 1194.91 451.58 1193.44 451.58C1190.37 451.58 1188.09 452.378 1186.59 453.976C1185.11 455.574 1184.38 457.202 1184.38 458.892C1184.38 460.029 1184.71 461.196 1185.42 462.394C1186.13 463.593 1187.05 464.606 1188.25 465.436C1189.41 466.296 1191.04 467.31 1193.1 468.478L1196.91 470.628C1201.85 473.424 1205.14 475.974 1206.8 478.309C1208.46 480.644 1209.29 483.348 1209.29 486.359C1209.29 490.507 1207.72 494.071 1204.56 497.112C1201.39 500.154 1196.76 501.659 1190.61 501.659C1188.71 501.659 1186.89 501.537 1185.11 501.291C1183.33 501.045 1180.6 500.4 1176.88 499.324H1176.94Z" fill="#CC982C"/>
<path d="M1259.91 500.338L1280.98 447.309H1288.42L1309.15 500.338H1301.01L1295.24 485.652H1272.72L1266.89 500.338H1259.88H1259.91ZM1274.93 480.03H1293L1284 457.202L1274.93 480.03Z" fill="#CC982C"/>
<path d="M1316.77 500.338V447.309H1324.17L1350.78 488.233V447.309H1357.26V500.338H1349.89L1323.25 459.414V500.338H1316.77Z" fill="#CC982C"/>
<path d="M1370.99 500.338V447.309H1388.59C1395.38 447.309 1400.54 448.292 1404.07 450.258C1407.61 452.225 1410.34 455.113 1412.34 458.892C1414.33 462.671 1415.32 467.249 1415.32 472.564C1415.32 477.603 1414.39 482.242 1412.58 486.42C1410.77 490.63 1407.97 494.009 1404.26 496.529C1400.54 499.048 1395.35 500.338 1388.71 500.338H1370.99ZM1378.52 494.716H1388.13C1393.14 494.716 1396.88 493.917 1399.37 492.319C1401.86 490.722 1403.8 488.233 1405.21 484.761C1406.62 481.32 1407.33 477.48 1407.33 473.24C1407.33 469.522 1406.71 466.112 1405.52 463.039C1404.32 459.967 1402.32 457.509 1399.62 455.666C1396.92 453.822 1391.94 452.901 1384.72 452.901H1378.55V494.685L1378.52 494.716Z" fill="#CC982C"/>
<path d="M1449.17 500.338V447.309H1456.69V469.676H1481.91V447.309H1489.44V500.338H1481.91V475.298H1456.69V500.338H1449.17Z" fill="#CC982C"/>
<path d="M1524.77 501.659C1519.76 501.659 1515.4 500.523 1511.68 498.28C1507.96 496.037 1505.07 492.75 1503.05 488.448C1500.99 484.147 1499.98 479.262 1499.98 473.824C1499.98 468.385 1500.96 463.777 1502.89 459.476C1504.83 455.174 1507.72 451.825 1511.53 449.49C1515.33 447.155 1519.73 445.988 1524.8 445.988C1529.86 445.988 1534.26 447.155 1538.07 449.49C1541.88 451.825 1544.73 455.144 1546.7 459.476C1548.63 463.777 1549.62 468.57 1549.62 473.824C1549.62 479.077 1548.66 483.809 1546.73 488.11C1544.79 492.412 1541.97 495.73 1538.19 498.095C1534.44 500.461 1529.96 501.659 1524.8 501.659H1524.77ZM1524.77 496.037C1530.11 496.037 1534.26 494.04 1537.18 490.046C1540.09 486.052 1541.57 480.614 1541.57 473.731C1541.57 466.849 1540.09 461.473 1537.14 457.509C1534.2 453.546 1530.08 451.58 1524.77 451.58C1519.45 451.58 1515.33 453.546 1512.39 457.509C1509.44 461.473 1507.96 466.88 1507.96 473.731C1507.96 480.583 1509.44 486.052 1512.36 490.046C1515.27 494.04 1519.42 496.037 1524.77 496.037Z" fill="#CC982C"/>
<path d="M1556.9 499.324V491.859C1561.17 493.825 1564.3 494.992 1566.27 495.423C1568.23 495.822 1570.07 496.037 1571.73 496.037C1574.77 496.037 1577.2 495.207 1578.95 493.548C1580.73 491.889 1581.59 489.892 1581.59 487.588C1581.59 485.837 1581.13 484.239 1580.21 482.734C1579.26 481.29 1576.92 479.508 1573.21 477.388L1569.52 475.268C1564.64 472.502 1561.35 469.952 1559.66 467.679C1557.97 465.375 1557.14 462.824 1557.14 460.059C1557.14 457.54 1557.82 455.205 1559.14 452.993C1560.46 450.781 1562.27 449.06 1564.51 447.831C1566.76 446.602 1569.58 445.957 1572.99 445.957C1577.11 445.957 1581.44 446.633 1585.99 448.016V454.898C1582.02 453.331 1579.29 452.409 1577.82 452.071C1576.34 451.764 1574.87 451.58 1573.39 451.58C1570.32 451.58 1568.05 452.378 1566.54 453.976C1565.07 455.574 1564.33 457.202 1564.33 458.892C1564.33 460.029 1564.67 461.196 1565.37 462.394C1566.08 463.593 1567 464.606 1568.2 465.436C1569.37 466.296 1571 467.31 1573.05 468.478L1576.86 470.628C1581.81 473.424 1585.1 475.974 1586.75 478.309C1588.41 480.644 1589.24 483.348 1589.24 486.359C1589.24 490.507 1587.68 494.071 1584.51 497.112C1581.35 500.154 1576.71 501.659 1570.57 501.659C1568.66 501.659 1566.85 501.537 1565.07 501.291C1563.29 501.045 1560.55 500.4 1556.83 499.324H1556.9Z" fill="#CC982C"/>
<path d="M1599.63 500.338V447.309H1613.79C1618.82 447.309 1622.42 447.8 1624.63 448.814C1626.81 449.828 1628.5 451.364 1629.67 453.423C1630.84 455.512 1631.42 458.093 1631.42 461.196C1631.42 464.821 1630.65 468.017 1629.08 470.72C1627.55 473.455 1625.06 475.544 1621.62 477.019C1618.21 478.494 1614.43 479.231 1610.32 479.231H1607.06V500.308H1599.6L1599.63 500.338ZM1607.09 473.578H1610.01C1614.8 473.578 1618.27 472.441 1620.36 470.167C1622.45 467.894 1623.49 465.098 1623.49 461.749C1623.49 459.936 1623.16 458.4 1622.48 457.14C1621.8 455.881 1620.73 454.867 1619.29 454.099C1617.81 453.331 1615.23 452.931 1611.51 452.931H1607.06V473.578H1607.09Z" fill="#CC982C"/>
<path d="M1640.17 500.338V447.309H1647.7V500.338H1640.17Z" fill="#CC982C"/>
<path d="M1673.93 500.338V452.931H1655.13V447.309H1700.29V452.931H1681.49V500.338H1673.96H1673.93Z" fill="#CC982C"/>
<path d="M1701.52 500.338L1722.59 447.309H1730.03L1750.76 500.338H1742.62L1736.84 485.652H1714.33L1708.49 500.338H1701.49H1701.52ZM1716.57 480.03H1734.63L1725.63 457.202L1716.57 480.03Z" fill="#CC982C"/>
<path d="M1758.38 500.338V447.309H1765.9V494.716H1789.43V500.338H1758.38Z" fill="#CC982C"/>
<path d="M1797.48 500.338V447.309H1805.01V500.338H1797.48Z" fill="#CC982C"/>
<path d="M1831.24 500.338V452.931H1812.44V447.309H1857.6V452.931H1838.8V500.338H1831.27H1831.24Z" fill="#CC982C"/>
<path d="M1876.52 500.338V478.186L1858.83 447.278H1867.43L1881.19 471.212L1896 447.278H1903.03L1884.08 478.033V500.338H1876.55H1876.52Z" fill="#CC982C"/>
<path d="M615.903 307.485C615.903 138.534 478.377 1.53613 308.719 1.53613C139.062 1.53613 1.53613 138.534 1.53613 307.485C1.53613 476.435 139.062 613.433 308.719 613.433C478.377 613.433 615.903 476.435 615.903 307.485ZM589.454 307.485C589.454 461.934 463.755 587.164 308.719 587.164C153.684 587.164 27.9846 461.964 27.9846 307.485C27.9846 153.005 153.684 27.8358 308.719 27.8358C463.755 27.8358 589.454 153.066 589.454 307.515V307.485Z" fill="#CC982C"/>
<path d="M250.723 345.951C242.921 342.049 230.48 338.792 229.251 338.454C188.733 327.424 174.449 325.55 141.857 305.61C122.075 293.505 106.869 273.473 96.7013 259.832C90.8034 251.936 84.0453 244.193 76.0279 239.308C74.6763 238.356 67.4882 236.113 68.8398 235.038C75.69 229.661 86.1956 226.896 93.7831 224.868C106.5 221.458 120.324 219.983 133.594 220.69C200.621 225.728 266.174 286.654 277.786 352.71C278.185 355.414 278.247 356.489 276.68 353.017C256.191 307.915 210.636 277.314 163.421 257.589C154.882 254.025 143.731 250.738 133.563 249.171C123.488 247.604 124.041 256.36 132.427 259.125C177.613 278.481 230.787 300.602 253.15 347.333L250.723 345.982V345.951Z" fill="#CC982C"/>
<path d="M375.931 345.951C383.734 342.049 396.174 338.792 397.403 338.454C437.921 327.424 452.205 325.55 484.797 305.61C504.579 293.505 519.785 273.473 529.953 259.832C535.851 251.936 542.609 244.193 550.626 239.308C551.978 238.356 559.166 236.113 557.814 235.038C550.964 229.661 540.458 226.896 532.871 224.868C520.154 221.458 506.33 219.983 493.06 220.69C426.033 225.728 360.48 286.654 348.868 352.71C348.469 355.414 348.407 356.489 349.974 353.017C370.463 307.915 416.019 277.314 463.233 257.589C471.772 254.025 482.923 250.738 493.091 249.171C503.166 247.604 502.613 256.36 494.227 259.125C449.041 278.481 395.867 300.602 373.504 347.333L375.931 345.982V345.951Z" fill="#CC982C"/>
<path d="M292.991 326.748C293.145 299.158 290.288 271.476 283.346 244.746C277.141 220.843 267.495 192.977 253.181 172.607C238.896 152.237 222.493 137.95 198.348 128.456C190.73 125.476 182.528 124.217 174.511 122.619C170.364 121.789 166.186 120.991 162.039 120.069C160.718 119.792 149.506 117.887 149.383 116.904C153.5 148.335 154.728 187.723 177.583 209.445C181.576 213.224 186.337 217.771 191.682 221.796C206.335 232.764 222.186 242.227 236.04 254.271C238.589 256.514 241.077 258.849 243.443 261.276C245.808 263.703 248.634 266.837 250.232 269.049C250.293 266.898 249.617 262.781 249.003 259.863C248.296 256.421 247.129 252.366 245.962 249.078C240.156 232.488 231.708 218.017 222.186 203.484C216.81 195.281 210.881 187.477 204.431 180.134C200.499 175.648 196.014 171.439 192.02 166.923C189.44 164.004 183.941 157.583 188.088 153.804C193.188 149.164 203.601 159.457 209.069 165.049C226.179 182.531 240.463 200.504 252.351 221.857C256.805 229.845 260.614 240.046 263.748 248.648C268.14 260.723 271.028 273.289 275.021 285.486C277.141 291.908 280.059 298.052 282.639 304.289C285.803 311.97 289.182 319.405 292.991 326.748Z" fill="#CC982C"/>
<path d="M333.479 326.748C333.325 299.158 336.182 271.476 343.124 244.746C349.329 220.843 358.975 192.977 373.289 172.607C387.573 152.237 403.977 137.95 428.122 128.456C435.74 125.476 443.942 124.217 451.959 122.619C456.106 121.789 460.284 120.991 464.431 120.069C465.752 119.792 476.964 117.887 477.087 116.904C472.97 148.335 471.742 187.723 448.887 209.445C444.894 213.224 440.133 217.771 434.788 221.796C420.135 232.764 404.284 242.227 390.43 254.271C387.881 256.514 385.392 258.849 383.027 261.276C380.662 263.703 377.836 266.837 376.238 269.049C376.177 266.898 376.853 262.781 377.467 259.863C378.174 256.421 379.341 252.366 380.508 249.078C386.314 232.488 394.762 218.017 404.284 203.484C409.66 195.281 415.589 187.477 422.039 180.134C425.971 175.648 430.456 171.439 434.45 166.923C437.03 164.004 442.529 157.583 438.382 153.804C433.282 149.164 422.869 159.457 417.401 165.049C400.291 182.531 386.007 200.504 374.119 221.857C369.665 229.845 365.856 240.046 362.722 248.648C358.33 260.723 355.442 273.289 351.449 285.486C349.329 291.908 346.411 298.052 343.831 304.289C340.667 311.97 337.288 319.405 333.479 326.748Z" fill="#CC982C"/>
<path d="M311.484 60.3721C311.484 60.3721 316.307 67.2545 329.761 82.8008C336.366 90.4202 341.618 99.2687 345.704 108.455C350.619 119.546 353.844 131.437 354.643 143.542C355.196 151.684 354.735 160.225 352.769 168.213C350.281 178.475 347.424 185.818 345.089 190.888C342.325 196.909 339.161 202.716 336.612 208.83C334.216 214.514 331.881 220.198 329.823 225.974C328.717 229.107 327.672 232.303 326.72 235.498C324.263 243.824 322.789 247.604 319.686 259.924C318.58 264.379 316.153 272.521 315.324 283.704C315.262 284.349 308.75 267.083 306.907 260.692C302.883 246.559 298.644 236.051 294.743 224.499C291.947 216.173 289.336 210.981 285.865 202.962C282.762 195.834 279.844 188.614 277.08 181.332C274.561 174.726 273.393 167.66 272.656 160.624C271.243 146.798 271.335 132.666 275.083 119.362C278.154 108.455 282.025 98.3161 290.289 86.9482C292.07 84.4902 296.309 78.9598 301.654 72.6924C303.343 70.6953 305.31 68.5142 307.03 66.5479C307.89 65.5647 308.689 64.5505 309.457 63.5059C309.703 63.1674 310.746 61.57 311.453 60.3721H311.484ZM315.908 107.072C309.181 103.416 306.169 110.882 305.708 117.795L305.678 117.765V118.041C304.726 134.847 305.77 152.175 305.893 169.012C306.047 186.432 306.169 203.853 306.169 221.273C306.2 230.921 305.002 266.345 311.023 267.882C313.112 268.404 314.893 267.451 316.214 266.652C318.242 265.423 317.997 262.413 317.997 259.647C318.027 240.66 319.809 135.861 319.748 125.568C319.717 119.977 321.191 109.93 315.908 107.072Z" fill="#CC982C"/>
<path d="M313.358 368.932C323.571 368.932 331.85 360.652 331.85 350.437C331.85 340.222 323.571 331.941 313.358 331.941C303.145 331.941 294.865 340.222 294.865 350.437C294.865 360.652 303.145 368.932 313.358 368.932Z" fill="#CC982C"/>
<path d="M115.102 379.286C143.516 370.008 174.972 370.346 203.847 376.859C233.214 383.496 261.045 395.447 288.445 407.675C300.18 412.898 311.883 418.183 323.71 423.191C358.329 437.785 395.683 451.057 433.804 449.429C468.731 447.924 496.408 438 523.563 416.278C523.655 416.217 523.717 416.155 523.809 416.094C536.649 405.801 546.878 391.545 554.036 376.706C560.947 362.388 564.972 348.04 567.644 332.525C568.289 328.776 569.088 324.997 569.549 321.218C563.559 338.024 552.93 358.21 539.506 374.616C526.912 390.009 510.754 402.36 498.774 409.027C466.181 427.154 428.367 430.227 392.15 423.621C373.811 420.272 355.903 414.68 338.578 407.798C320.331 400.547 303.159 391.238 285.435 382.85C272.932 376.921 260.307 371.145 247.344 366.29C236.347 362.081 225.166 358.363 213.8 355.352C200.499 351.819 186.583 349.945 172.852 349.023C161.794 348.286 150.612 348.655 139.615 350.099C139.492 350.099 139.339 350.129 139.216 350.16C126.713 351.819 114.426 354.984 102.661 359.531C93.1382 363.218 83.9841 367.796 75.2908 373.142C70.8059 375.907 66.4439 378.979 62.3584 382.328C65.5531 389.579 68.072 395.416 71.236 402.084C77.9326 397.536 84.3834 393.88 91.5101 389.794C99.0361 385.462 106.931 382.021 115.071 379.348L115.102 379.286Z" fill="#CC982C"/>
<path d="M122.29 432.961C149.691 421.747 177.767 419.535 206.796 425.649C248.112 434.344 285.128 456.096 323.71 472.349C347.363 482.304 371.323 492.442 396.82 496.529C422.777 500.676 449.532 497.85 474.414 489.493C482.708 486.697 490.787 483.164 498.436 478.832C512.474 470.844 524.178 459.291 533.762 446.387C543.469 433.33 551.026 418.674 555.234 402.975C541.964 423.836 523.594 440.919 502.183 453.147C479.759 465.989 455.83 473.517 429.873 474.039C404.653 474.561 383.795 469.215 359.927 461.381C336.151 453.577 313.327 443.192 290.903 432.162C228.268 401.346 186.399 397.291 152.793 400.117C126.898 402.299 107.883 411.178 90.6194 422.484C89.8207 423.006 86.9332 424.881 83.5542 427.277C86.9639 434.282 90.6808 441.072 94.7049 447.708C95.8415 446.879 98.1147 445.496 98.5755 445.158C105.886 440.089 113.996 436.341 122.229 432.961H122.29Z" fill="#CC982C"/>
<path d="M290.933 482.426C232.108 449.921 168.121 434.221 108.221 469.184C113.105 475.944 118.327 482.488 123.856 488.725C123.856 488.725 127.819 486.113 132.273 484.208C136.267 482.488 140.321 480.982 144.438 479.6C149.598 477.849 155.005 476.743 160.38 475.79C161.486 475.575 162.623 475.391 163.729 475.206C176.723 472.963 189.962 472.779 203.048 474.346C230.172 477.634 256.16 488.295 280.182 500.83C305.678 514.133 332.004 527.222 359.957 534.503L360.387 534.626C372.06 537.637 384.225 538.866 396.266 538.19C415.312 537.115 433.989 531.185 449.993 520.801L450.454 520.493C396.174 527.652 338.424 508.634 290.933 482.396V482.426Z" fill="#CC982C"/>
<path d="M125.147 199.736C135.36 199.736 143.639 191.455 143.639 181.24C143.639 171.025 135.36 162.744 125.147 162.744C114.934 162.744 106.654 171.025 106.654 181.24C106.654 191.455 114.934 199.736 125.147 199.736Z" fill="#CC982C"/>
<path d="M83.7693 324.874C93.9824 324.874 102.262 316.594 102.262 306.379C102.262 296.164 93.9824 287.883 83.7693 287.883C73.5562 287.883 65.2769 296.164 65.2769 306.379C65.2769 316.594 73.5562 324.874 83.7693 324.874Z" fill="#CC982C"/>
<path d="M235.702 115.798C245.915 115.798 254.194 107.517 254.194 97.3024C254.194 87.0875 245.915 78.8066 235.702 78.8066C225.489 78.8066 217.209 87.0875 217.209 97.3024C217.209 107.517 225.489 115.798 235.702 115.798Z" fill="#CC982C"/>
<path d="M388.495 115.798C398.708 115.798 406.987 107.517 406.987 97.3024C406.987 87.0875 398.708 78.8066 388.495 78.8066C378.282 78.8066 370.002 87.0875 370.002 97.3024C370.002 107.517 378.282 115.798 388.495 115.798Z" fill="#CC982C"/>
<path d="M500.371 194.881C510.584 194.881 518.863 186.601 518.863 176.386C518.863 166.171 510.584 157.89 500.371 157.89C490.158 157.89 481.878 166.171 481.878 176.386C481.878 186.601 490.158 194.881 500.371 194.881Z" fill="#CC982C"/>
<path d="M539.475 324.874C549.688 324.874 557.968 316.594 557.968 306.379C557.968 296.164 549.688 287.883 539.475 287.883C529.262 287.883 520.983 296.164 520.983 306.379C520.983 316.594 529.262 324.874 539.475 324.874Z" fill="#CC982C"/>
<path d="M459.577 391.176C474.421 391.176 486.455 379.14 486.455 364.293C486.455 349.446 474.421 337.41 459.577 337.41C444.732 337.41 432.698 349.446 432.698 364.293C432.698 379.14 444.732 391.176 459.577 391.176Z" fill="#CC982C"/>
<path d="M615.903 307.485C615.903 138.534 478.377 1.53613 308.719 1.53613C139.062 1.53613 1.53613 138.534 1.53613 307.485C1.53613 476.435 139.062 613.433 308.719 613.433C478.377 613.433 615.903 476.435 615.903 307.485ZM589.454 307.485C589.454 461.934 463.755 587.164 308.719 587.164C153.684 587.164 27.9846 461.964 27.9846 307.485C27.9846 153.005 153.684 27.8358 308.719 27.8358C463.755 27.8358 589.454 153.066 589.454 307.515V307.485Z" fill="#CC982C" stroke="#CC982C" stroke-miterlimit="10"/>
<path d="M836.215 142.835C840.024 139.025 842.573 135.062 843.863 130.945C845 127.535 846.628 125.845 848.748 125.845C849.884 125.845 851.144 126.552 852.557 127.965C853.54 133.065 854.953 143.327 856.796 158.75L861.895 198.66C861.895 201.211 860.328 202.47 857.226 202.47C855.536 202.47 854.031 201.057 852.772 198.23C845.276 179.673 834.156 164.25 819.442 151.96C804.728 139.794 788.663 133.71 771.245 133.71C753.828 133.71 741.203 138.872 732.51 149.195C723.816 159.518 719.454 170.487 719.454 182.1C719.454 196.264 724.185 207.079 733.677 214.575C743.169 222.072 762.675 230.583 792.257 240.046C814.036 246.836 830.347 253.41 841.191 259.801C852.004 266.161 861.096 275.101 868.469 286.562C875.81 298.022 879.497 310.342 879.497 323.492C879.497 345.859 870.22 365.891 851.697 383.588C833.143 401.285 810.442 410.133 783.563 410.133C759.357 410.133 735.028 402.575 710.546 387.428C705.723 391.391 702.621 396.061 701.208 401.438C700.071 405.955 698.228 408.228 695.678 408.228C693.405 408.228 691.777 405.34 690.794 399.533C689.811 393.726 687.753 366.259 684.65 317.163C685.203 315.473 686.709 314.612 689.105 314.612C691.224 314.612 692.914 316.179 694.204 319.282C715.983 374.063 746.425 401.438 785.468 401.438C804.851 401.438 820.026 395.601 830.992 383.926C841.959 372.25 847.457 358.824 847.457 343.677C847.457 333.2 844.509 323.584 838.641 314.797C832.774 306.01 824.972 298.943 815.295 293.567C805.588 288.19 790.291 282.168 769.341 275.532C742.462 266.898 724.154 258.726 714.478 251.014C704.771 243.302 697.675 234.607 693.129 224.899C688.613 215.19 686.34 205.819 686.34 196.756C686.34 177.922 694.88 161.239 711.928 146.645C728.977 132.051 749.896 124.77 774.655 124.77C783.993 124.77 793.793 126.244 804.052 129.224C814.312 132.205 825.033 136.721 836.215 142.804V142.835Z" fill="#CC982C"/>
<path d="M988.424 271.292C988.424 277.652 987.994 287.207 987.134 299.957C986.703 306.194 986.488 312.493 986.488 318.852C986.488 323.676 986.734 334.03 987.226 349.945C987.717 365.86 988.7 375.814 990.205 379.778C991.68 383.741 994.936 387.551 999.974 391.238C1004.98 394.925 1010.42 396.891 1016.22 397.168C1022.74 397.598 1025.99 399.072 1025.99 401.623C1025.99 403.62 1025.01 404.787 1023.01 405.125C1021.02 405.494 1013.52 405.647 1000.5 405.647L942.131 405.432C925.728 405.432 916.973 405.186 915.928 404.695C914.884 404.203 914.331 403.251 914.331 401.838C914.331 399.564 917.034 397.874 922.41 396.737C931.902 394.617 938.506 391.299 942.254 386.752C946.002 382.236 948.306 372.496 949.166 357.595C950.026 342.663 950.425 325.458 950.425 305.948L949.78 249.293L950.425 188.184C950.425 166.554 948.951 152.728 945.971 146.706C942.991 140.685 937.185 136.906 928.554 135.369C919.215 133.68 914.546 131.621 914.546 129.225C914.546 126.828 916.666 125.63 920.905 125.63L962.927 125.845L1030.45 125.415C1074.9 125.415 1104.78 132.328 1120.14 146.184C1135.5 160.041 1143.18 177.338 1143.18 198.138C1143.18 222.871 1133.14 241.459 1113.05 253.902C1092.96 266.345 1062.73 272.551 1022.4 272.551C1012.63 272.551 1001.29 272.121 988.424 271.292ZM988.424 262.781C1009.22 263.488 1021.05 263.826 1023.87 263.826C1038.31 263.826 1051.89 261.368 1064.64 256.421C1077.38 251.475 1086.66 242.565 1092.56 229.722C1098.43 216.849 1101.37 204.129 1101.37 191.563C1101.37 175.587 1095.97 162.068 1085.12 150.977C1074.31 139.886 1054.81 134.325 1026.64 134.325C1012.05 134.325 999.329 135.892 988.424 138.995C988.27 144.095 988.209 147.259 988.209 148.519L989.069 197.278L988.209 249.201C988.209 251.751 988.27 256.268 988.424 262.781Z" fill="#CC982C"/>
<path d="M1300.98 122.219H1310.78C1326.57 154.633 1348.38 210.059 1376.18 288.466C1394.09 338.7 1406.41 369.547 1413.07 380.915C1419.74 392.313 1430.46 398.642 1445.21 399.902C1449.87 400.332 1452.24 401.899 1452.24 404.572C1452.24 406.538 1451.04 407.552 1448.65 407.552L1445.67 407.337C1432.64 406.2 1416.08 405.647 1395.99 405.647C1365.15 405.647 1345.34 406.139 1336.55 407.122C1332.16 407.122 1329.98 405.862 1329.98 403.312C1329.98 401.469 1331.61 400.332 1334.86 399.902C1346.91 398.765 1355.2 396.707 1359.81 393.757C1364.42 390.777 1366.72 386.107 1366.72 379.747C1366.72 373.387 1362.42 358.455 1353.79 334.091L1341.29 297.561C1333.91 297.561 1301.01 297.991 1242.56 298.851C1227.81 338.055 1220.44 362.788 1220.44 373.019C1220.44 381.683 1224.09 388.135 1231.37 392.344C1238.66 396.553 1245.84 398.857 1252.91 399.287C1258.13 399.687 1260.77 401.285 1260.77 404.05C1260.77 405.156 1259.91 406.2 1258.22 407.153C1235.58 406.17 1221.91 405.678 1217.24 405.678C1193.47 405.678 1177.46 405.955 1169.26 406.538C1164.75 406.538 1162.47 405.248 1162.47 402.729C1162.47 400.455 1164.44 399.042 1168.4 398.489C1184.68 396.369 1197.12 385.339 1205.76 365.368C1214.39 345.398 1227.84 309.543 1246.12 257.712C1262.83 210.581 1281.11 165.417 1300.95 122.25L1300.98 122.219ZM1292.5 168.52C1279.33 195.404 1263.94 234.485 1246.37 285.732C1260.96 285.025 1271.43 284.657 1277.79 284.657L1337.45 285.732C1332.22 271.015 1324.85 251.475 1315.39 227.142C1303.81 198.138 1296.16 178.598 1292.5 168.551V168.52Z" fill="#CC982C"/>
<path d="M1736.29 242.073C1743.23 233.716 1752.63 221.089 1764.52 204.16C1776.41 187.231 1783.48 176.355 1785.75 171.531C1788.02 166.708 1789.16 162.406 1789.16 158.566C1789.16 152.329 1786.42 147.567 1780.99 144.218C1775.55 140.9 1769.62 138.995 1763.26 138.595C1757.18 138.165 1754.14 136.598 1754.14 133.925C1754.14 131.529 1758.53 130.331 1767.29 130.331H1856.25C1862.18 130.331 1865.83 130.546 1867.18 130.976C1868.53 131.406 1869.21 132.45 1869.21 134.171C1869.21 136.567 1866.51 137.919 1861.13 138.196C1848.11 138.749 1836.03 143.142 1824.95 151.376C1813.83 159.58 1798.31 177.184 1778.35 204.191C1758.38 231.166 1747.29 246.928 1745.02 251.475C1786.21 313.107 1815.27 353.048 1832.26 371.329C1849.24 389.609 1864.88 399.011 1879.16 399.595C1884.26 399.871 1886.81 401.438 1886.81 404.265C1886.81 406.661 1884.11 407.859 1878.73 407.859C1876.46 407.859 1870.65 407.583 1861.32 406.999C1848.01 406.139 1835.54 405.709 1823.96 405.709C1804.15 405.709 1785.26 406.139 1767.29 406.999C1765.01 407.122 1762.74 407.214 1760.5 407.214C1753.71 407.214 1750.3 406.016 1750.3 403.619C1750.3 400.793 1752.14 399.38 1755.83 399.38C1773.8 399.38 1782.8 393.788 1782.8 382.604C1782.8 370.837 1762 337.84 1720.38 283.581C1715.86 287.821 1704.5 303.183 1686.31 329.575C1668.13 355.997 1659.04 372.588 1659.04 379.409C1659.04 384.233 1662.48 388.473 1669.33 392.159C1676.18 395.846 1684.93 398.12 1695.53 398.949C1700.75 399.349 1703.39 400.731 1703.39 403.097C1703.39 405.709 1700.9 407.03 1695.96 407.03L1688.1 406.815L1644.78 405.739C1619.32 405.739 1601.84 406.231 1592.35 407.214C1586.39 407.214 1583.44 405.832 1583.44 403.066C1583.44 400.301 1585.62 399.134 1590.01 399.134C1599.63 399.134 1608.44 397.352 1616.43 393.819C1624.42 390.285 1631.14 385.431 1636.61 379.255C1642.05 373.111 1654.12 356.796 1672.8 330.374C1691.47 303.951 1704.44 284.995 1711.66 273.535C1662.97 202.409 1633.02 162.283 1621.74 153.158C1610.5 144.033 1597.72 139.025 1583.44 138.165C1579.63 137.889 1577.69 136.506 1577.69 134.017C1577.69 131.529 1581.23 130.3 1588.32 130.3H1699.98C1705.36 130.3 1708.58 130.546 1709.63 131.037C1710.67 131.529 1711.23 132.635 1711.23 134.325C1711.23 135.738 1710.58 136.752 1709.32 137.397C1708.06 138.042 1703.39 138.565 1695.31 138.995C1690.49 139.425 1686.41 140.93 1683 143.573C1679.59 146.184 1677.9 149.195 1677.9 152.605C1677.9 156.722 1684.69 169.196 1698.26 189.996C1711.84 210.827 1724.5 228.186 1736.26 242.043L1736.29 242.073Z" fill="#CC982C"/>
<path d="M1507.99 305.672C1530.05 305.672 1547.93 287.79 1547.93 265.731C1547.93 243.672 1530.05 225.79 1507.99 225.79C1485.94 225.79 1468.06 243.672 1468.06 265.731C1468.06 287.79 1485.94 305.672 1507.99 305.672Z" fill="#CC982C"/>
</g>
<defs>
<clipPath id="clip0_240_31">
<rect width="1903" height="615" fill="white"/>
</clipPath>
</defs>
</svg>
