<svg width="16" height="16" viewBox="0 0 16 16" fill="none" xmlns="http://www.w3.org/2000/svg">
<g clip-path="url(#clip0_18633_7008)">
<path d="M12.6334 9.91143C12.3058 9.57036 11.9107 9.38801 11.492 9.38801C11.0767 9.38801 10.6782 9.56699 10.3371 9.90806L9.27 10.9718C9.1822 10.9245 9.09441 10.8806 9.00998 10.8367C8.88841 10.7759 8.7736 10.7185 8.67567 10.6577C7.6761 10.0229 6.76771 9.19553 5.89647 8.12505C5.47436 7.5915 5.1907 7.14237 4.98471 6.68648C5.26161 6.43322 5.51826 6.16982 5.76815 5.91655C5.8627 5.82199 5.95726 5.72406 6.05181 5.62951C6.76096 4.92036 6.76096 4.00184 6.05181 3.29269L5.12991 2.37079C5.02523 2.26611 4.91717 2.15805 4.81586 2.04999C4.61325 1.84062 4.4005 1.6245 4.181 1.42188C3.85344 1.0977 3.46172 0.925476 3.04974 0.925476C2.63775 0.925476 2.23928 1.0977 1.90159 1.42188C1.89821 1.42526 1.89821 1.42526 1.89483 1.42864L0.746685 2.58692C0.31444 3.01916 0.067926 3.54596 0.0138955 4.15718C-0.0671503 5.14324 0.223264 6.06176 0.44614 6.66284C0.993199 8.13855 1.81041 9.5062 3.02948 10.9718C4.50856 12.7379 6.28819 14.1326 8.32109 15.1152C9.09778 15.4833 10.1345 15.919 11.2928 15.9932C11.3637 15.9966 11.438 16 11.5055 16C12.2856 16 12.9407 15.7197 13.454 15.1625C13.4574 15.1558 13.4641 15.1524 13.4675 15.1456C13.6431 14.9329 13.8457 14.7404 14.0585 14.5344C14.2037 14.396 14.3523 14.2508 14.4975 14.0988C14.8318 13.751 15.0074 13.3457 15.0074 12.9304C15.0074 12.5117 14.8284 12.1098 14.4873 11.7721L12.6334 9.91143ZM13.8423 13.4673C13.839 13.4673 13.839 13.4707 13.8423 13.4673C13.7106 13.6091 13.5756 13.7375 13.4304 13.8793C13.2109 14.0887 12.988 14.3082 12.7786 14.5547C12.4375 14.9194 12.0357 15.0916 11.5089 15.0916C11.4582 15.0916 11.4042 15.0916 11.3536 15.0882C10.3506 15.0241 9.41859 14.6324 8.71957 14.298C6.80824 13.3728 5.12991 12.0591 3.73525 10.3943C2.58372 9.00642 1.81379 7.72319 1.30387 6.34542C0.989822 5.50457 0.875007 4.84944 0.925661 4.23147C0.95943 3.83637 1.11139 3.50881 1.39167 3.22853L2.5432 2.077C2.70867 1.92166 2.88427 1.83724 3.05649 1.83724C3.26924 1.83724 3.44146 1.96556 3.54952 2.07363C3.5529 2.077 3.55627 2.08038 3.55965 2.08376C3.76564 2.27624 3.9615 2.47548 4.16749 2.68822C4.27218 2.79628 4.38024 2.90435 4.4883 3.01578L5.4102 3.93768C5.76815 4.29563 5.76815 4.62657 5.4102 4.98452C5.31227 5.08245 5.21771 5.18038 5.11978 5.27493C4.83612 5.56535 4.56597 5.8355 4.27218 6.0989C4.26542 6.10565 4.25867 6.10903 4.25529 6.11579C3.96488 6.4062 4.01891 6.68986 4.07969 6.88234C4.08307 6.89247 4.08645 6.90261 4.08983 6.91274C4.32959 7.49356 4.66728 8.04062 5.18057 8.69237L5.18394 8.69574C6.11597 9.84389 7.09865 10.7388 8.18264 11.4243C8.32109 11.5121 8.46292 11.583 8.598 11.6505C8.71957 11.7113 8.83438 11.7687 8.93231 11.8295C8.94582 11.8363 8.95933 11.8464 8.97284 11.8532C9.08765 11.9106 9.19571 11.9376 9.30715 11.9376C9.58743 11.9376 9.76303 11.762 9.82044 11.7046L10.9753 10.5497C11.0902 10.4349 11.2725 10.2964 11.4853 10.2964C11.6946 10.2964 11.8668 10.4281 11.9715 10.5429C11.9749 10.5463 11.9749 10.5463 11.9783 10.5497L13.839 12.4103C14.1868 12.7548 14.1868 13.1094 13.8423 13.4673Z" fill="#DCD1C7"/>
<path d="M8.63501 3.80597C9.51976 3.95456 10.3235 4.37329 10.9651 5.01491C11.6067 5.65652 12.022 6.46022 12.174 7.34497C12.2111 7.56785 12.4036 7.72319 12.6231 7.72319C12.6501 7.72319 12.6738 7.71981 12.7008 7.71643C12.9507 7.67591 13.1161 7.43953 13.0756 7.18964C12.8933 6.11916 12.3867 5.14323 11.6134 4.36992C10.8401 3.5966 9.8642 3.09007 8.79373 2.90771C8.54384 2.86719 8.31083 3.03266 8.26693 3.27917C8.22303 3.52569 8.38512 3.76545 8.63501 3.80597Z" fill="#DCD1C7"/>
<path d="M15.9692 7.05794C15.6686 5.29519 14.8379 3.69116 13.5614 2.41469C12.285 1.13821 10.6809 0.307495 8.91819 0.00695018C8.67168 -0.0369496 8.43867 0.131896 8.39477 0.37841C8.35425 0.628302 8.51972 0.861308 8.76961 0.905208C10.3432 1.17198 11.7784 1.91828 12.9198 3.0563C14.0612 4.1977 14.8041 5.63288 15.0709 7.20652C15.1081 7.4294 15.3006 7.58474 15.52 7.58474C15.5471 7.58474 15.5707 7.58136 15.5977 7.57798C15.8442 7.54084 16.0131 7.30445 15.9692 7.05794Z" fill="#DCD1C7"/>
</g>
<defs>
<clipPath id="clip0_18633_7008">
<rect width="16" height="16" fill="white"/>
</clipPath>
</defs>
</svg>
