<svg width="75" height="75" viewBox="0 0 75 75" fill="none" xmlns="http://www.w3.org/2000/svg">
<path d="M75 37.5L64.597 27.0969C63.5619 26.0618 62.3957 25.2373 61.1529 24.616C62.0929 22.769 62.5844 20.73 62.5844 18.6129V12.4156H56.3871C54.27 12.4156 52.231 12.9071 50.384 13.8471C49.7627 12.6044 48.9382 11.4381 47.9031 10.403L37.5 0L27.0969 10.403C26.0617 11.4382 25.2371 12.6046 24.6158 13.8476C22.7685 12.9073 20.7292 12.4156 18.6118 12.4156H12.4145V18.6129C12.4145 20.7302 12.9061 22.7693 13.8463 24.6164C12.6038 25.2376 11.4379 26.0621 10.403 27.0969L0 37.5L10.403 47.9031C11.4379 48.9379 12.6038 49.7623 13.8463 50.3835C12.9061 52.2306 12.4145 54.2698 12.4145 56.3871V62.5844H18.6118C20.7292 62.5844 22.7685 62.0927 24.6158 61.1524C25.2371 62.3954 26.0617 63.5618 27.0969 64.597L37.5 75L47.9031 64.597C48.9382 63.5619 49.7627 62.3956 50.384 61.1529C52.231 62.0929 54.27 62.5844 56.3871 62.5844H62.5844V56.3871C62.5844 54.27 62.0929 52.231 61.1529 50.384C62.3956 49.7627 63.5619 48.9382 64.597 47.9031L75 37.5ZM56.3871 15.3667H59.6333V18.6129C59.6333 20.3786 59.1941 22.074 58.3566 23.5898C55.9854 23.0149 53.4867 23.1028 51.1533 23.8467C51.8972 21.5133 51.9851 19.0146 51.4101 16.6434C52.926 15.8059 54.6214 15.3667 56.3871 15.3667ZM37.5 46.6484C32.4555 46.6484 28.3516 42.5445 28.3516 37.5C28.3516 32.4555 32.4555 28.3516 37.5 28.3516C42.5445 28.3516 46.6484 32.4555 46.6484 37.5C46.6484 42.5445 42.5445 46.6484 37.5 46.6484ZM29.1837 12.4898L37.5 4.17348L45.8163 12.4898C49.8435 16.517 49.8435 23.0698 45.8163 27.0969L44.9425 27.9707C42.8881 26.3626 40.3051 25.4005 37.5 25.4005C34.6949 25.4005 32.1119 26.3626 30.0575 27.9707L29.1837 27.0969C25.1565 23.0698 25.1565 16.517 29.1837 12.4898ZM15.3656 18.6129V15.3667H18.6118C20.3778 15.3667 22.0736 15.8061 23.5897 16.644C23.0149 19.0149 23.1028 21.5135 23.8467 23.8467C21.513 23.1027 19.0139 23.0148 16.6424 23.5901C15.8049 22.0741 15.3656 20.3787 15.3656 18.6129ZM4.17348 37.5L12.4898 29.1837C16.5169 25.1565 23.0698 25.1565 27.0969 29.1837L27.9707 30.0575C26.3626 32.1119 25.4005 34.6949 25.4005 37.5C25.4005 40.3051 26.3626 42.8881 27.9707 44.9425L27.0969 45.8163C23.0698 49.8435 16.5169 49.8435 12.4898 45.8163L4.17348 37.5ZM18.6118 59.6333H15.3656V56.3871C15.3656 54.6213 15.8049 52.9258 16.6425 51.4099C17.6765 51.6607 18.7349 51.7864 19.7934 51.7864C21.1624 51.7864 22.5306 51.5729 23.8467 51.1533C23.1028 53.4864 23.0149 55.9851 23.5897 58.356C22.0736 59.1939 20.3778 59.6333 18.6118 59.6333ZM45.8163 62.5102L37.5 70.8265L29.1837 62.5102C25.1565 58.483 25.1565 51.9302 29.1837 47.9031L30.0575 47.0293C32.1119 48.6374 34.6949 49.5995 37.5 49.5995C40.3051 49.5995 42.8881 48.6374 44.9425 47.0293L45.8163 47.9031C49.8435 51.9302 49.8435 58.483 45.8163 62.5102ZM59.6333 56.3871V59.6333H56.3871C54.6214 59.6333 52.926 59.1941 51.4101 58.3566C51.9851 55.9854 51.8972 53.4866 51.1533 51.1533C52.4694 51.5729 53.8376 51.7864 55.2066 51.7864C56.2648 51.7864 57.3229 51.6608 58.3566 51.4101C59.1941 52.926 59.6333 54.6214 59.6333 56.3871ZM47.9031 45.8163L47.0293 44.9425C48.6374 42.8881 49.5995 40.3051 49.5995 37.5C49.5995 34.6949 48.6374 32.1119 47.0293 30.0575L47.9031 29.1837C51.9302 25.1565 58.4831 25.1565 62.5102 29.1837L70.8265 37.5L62.5102 45.8163C58.4831 49.8435 51.9302 49.8435 47.9031 45.8163Z" fill="url(#paint0_linear_18636_538)"/>
<path d="M37.5 31.3027C34.0828 31.3027 31.3027 34.0828 31.3027 37.5C31.3027 40.9172 34.0828 43.6973 37.5 43.6973C40.9172 43.6973 43.6973 40.9172 43.6973 37.5C43.6973 34.0828 40.9172 31.3027 37.5 31.3027ZM37.5 40.7462C35.71 40.7462 34.2538 39.29 34.2538 37.5C34.2538 35.71 35.71 34.2538 37.5 34.2538C39.29 34.2538 40.7462 35.71 40.7462 37.5C40.7462 39.29 39.29 40.7462 37.5 40.7462Z" fill="url(#paint1_linear_18636_538)"/>
<defs>
<linearGradient id="paint0_linear_18636_538" x1="61.8542" y1="75" x2="-5.63004" y2="63.9372" gradientUnits="userSpaceOnUse">
<stop stop-color="#D35355"/>
<stop offset="1" stop-color="#D96B2F"/>
</linearGradient>
<linearGradient id="paint1_linear_18636_538" x1="61.8542" y1="75" x2="-5.63004" y2="63.9372" gradientUnits="userSpaceOnUse">
<stop stop-color="#D35355"/>
<stop offset="1" stop-color="#D96B2F"/>
</linearGradient>
</defs>
</svg>
