<svg width="47" height="47" viewBox="0 0 47 47" fill="none" xmlns="http://www.w3.org/2000/svg">
<g clip-path="url(#clip0_18680_947)">
<path d="M38.5187 36.719H37.3432C38.7603 35.8677 39.9752 34.6766 40.847 33.2238C41.9921 31.3151 42.4495 29.0504 42.1347 26.8468L41.1172 19.7245C41.0656 19.3628 40.7557 19.094 40.3902 19.094H23.085L28.0477 15.5869C28.3789 15.3528 28.4577 14.8946 28.2236 14.5634L27.7998 13.9637L29.4591 12.7911C29.6212 12.8281 29.7872 12.8474 29.9538 12.8474C30.3932 12.8474 30.8369 12.7166 31.2223 12.4442C31.6829 12.1187 31.9804 11.6474 32.0971 11.1366C32.1831 11.1466 32.2689 11.1535 32.3544 11.1535C32.8057 11.1535 33.2451 11.0147 33.6212 10.749C34.0816 10.4237 34.3789 9.9526 34.4957 9.44193C34.5807 9.45176 34.6661 9.45681 34.7518 9.45681C35.1912 9.45681 35.6349 9.326 36.0202 9.05363C36.5008 8.71399 36.8203 8.20754 36.92 7.62766C36.927 7.58727 36.9325 7.54688 36.9372 7.50649L37.6546 6.99959C37.8425 6.86676 38.1034 6.91174 38.2362 7.09946C38.3982 7.32886 38.6398 7.48134 38.9167 7.52898C39.1936 7.57681 39.4724 7.51347 39.7015 7.35135L41.2334 6.26888C41.8994 5.79806 42.0582 4.8732 41.5876 4.20722L39.0568 0.625855C38.8287 0.303189 38.4887 0.0886593 38.0993 0.0217393C37.7096 -0.0451806 37.3177 0.043587 36.9951 0.27161L35.4636 1.35399C35.2342 1.5161 35.0817 1.75771 35.034 2.03457C34.9865 2.31134 35.0496 2.59003 35.2117 2.81943C35.3444 3.00734 35.2996 3.26832 35.1117 3.40106L34.3917 3.9098C34.3526 3.90089 34.3142 3.89052 34.2743 3.88373C33.6944 3.78403 33.1102 3.91622 32.6296 4.25587C32.1824 4.57202 31.8771 5.03339 31.7562 5.56315C31.2355 5.50238 30.6915 5.62539 30.2307 5.95108C29.7837 6.26686 29.4786 6.72796 29.3575 7.25726C28.8171 7.19383 28.2794 7.32987 27.8318 7.64639C27.3513 7.98594 27.0316 8.49248 26.932 9.07236C26.925 9.11275 26.9195 9.15323 26.9147 9.19362L25.2569 10.3651L24.8331 9.76534C24.7207 9.60634 24.5497 9.49839 24.3578 9.46534C24.1656 9.43266 23.9687 9.477 23.8095 9.58945L10.3601 19.094H6.60905C6.2436 19.094 5.93379 19.3628 5.88202 19.7245L4.86454 26.8469C4.54977 29.0504 5.00719 31.3151 6.15227 33.2238C7.02406 34.6766 8.2389 35.8677 9.65606 36.719H8.4806C6.6387 36.719 5.1403 38.2174 5.1403 40.0593V43.66C5.1403 45.5019 6.6387 47.0003 8.4806 47.0003H38.5188C40.3606 47.0003 41.859 45.5019 41.859 43.66V40.0592C41.859 38.2174 40.3606 36.719 38.5187 36.719ZM35.9594 4.60048C36.6915 4.08302 36.943 3.13512 36.614 2.33943L37.8429 1.47094C37.8469 1.468 37.8546 1.46928 37.8574 1.47342L40.3883 5.05478C40.3916 5.05955 40.3904 5.06607 40.3859 5.06937L39.1573 5.9375C38.8953 5.70094 38.5712 5.54268 38.2149 5.48136C37.7185 5.39608 37.2184 5.50917 36.8069 5.79999L36.548 5.98294C36.548 5.98294 36.548 5.98294 36.5479 5.98284L35.7003 4.78343L35.9594 4.60048ZM33.1774 5.9307C33.2107 5.73738 33.3172 5.56857 33.4774 5.45529C33.6028 5.36661 33.7493 5.32044 33.8997 5.32044C33.9416 5.32044 33.9837 5.32402 34.0256 5.33118C34.219 5.36441 34.3878 5.47089 34.5011 5.63117L35.3486 6.83059C35.4618 6.99077 35.506 7.18548 35.4727 7.3788C35.4395 7.57212 35.333 7.74094 35.1727 7.85422C35.0125 7.96749 34.8178 8.01165 34.6245 7.97823C34.4312 7.94509 34.2624 7.83852 34.1491 7.67824L33.3016 6.47873C33.1883 6.31855 33.1442 6.12394 33.1774 5.9307ZM30.7785 7.62592C30.8117 7.43259 30.9182 7.26378 31.0785 7.1505C31.2069 7.05971 31.3548 7.01611 31.5012 7.01611C31.7319 7.01611 31.9591 7.12416 32.102 7.32638L32.9496 8.5258C33.1833 8.85655 33.1044 9.31562 32.7736 9.54934C32.6134 9.66252 32.4182 9.70686 32.2255 9.67336C32.0322 9.64022 31.8634 9.53364 31.7501 9.37336L30.9024 8.17394C30.7893 8.01385 30.7453 7.81924 30.7785 7.62592ZM28.3796 9.32122C28.4127 9.1279 28.5193 8.95908 28.6797 8.84581C28.8049 8.75713 28.9514 8.71096 29.1019 8.71096C29.1436 8.71096 29.1858 8.71454 29.2277 8.7217C29.421 8.75493 29.5898 8.86141 29.7031 9.02169L30.5508 10.2211C30.664 10.3813 30.708 10.576 30.6748 10.7693C30.6416 10.9626 30.5351 11.1315 30.3748 11.2447C30.2145 11.358 30.0197 11.4022 29.8266 11.3688C29.6333 11.3356 29.4644 11.229 29.3512 11.0688L28.5036 9.86934C28.3903 9.70916 28.3464 9.51455 28.3796 9.32122ZM27.3041 10.717L28.1517 11.9164L26.9521 12.7641L26.1045 11.5646L27.3041 10.717ZM24.0575 11.2129L26.6004 14.8113L20.603 19.0495L18.0601 15.4511L24.0575 11.2129ZM16.8606 16.2987L18.8361 19.094H17.937L16.261 16.7225L16.8606 16.2987ZM15.0615 17.5701L16.1384 19.094H12.9051L15.0615 17.5701ZM7.24593 20.5628H39.7533L40.068 22.7659H6.93125L7.24593 20.5628ZM6.72141 24.2346H40.2779L40.3829 24.969H6.61657L6.72141 24.2346ZM6.3186 27.0546L6.41067 26.4099C6.47383 26.4276 6.5402 26.4378 6.60905 26.4378H40.3903C40.4591 26.4378 40.5255 26.4276 40.5887 26.4099L40.6807 27.0544C40.6863 27.0936 40.6899 27.1328 40.695 27.172H6.30437C6.30942 27.1329 6.313 27.0937 6.3186 27.0546ZM7.41181 32.468C6.7137 31.3046 6.31851 29.985 6.24911 28.6409H40.7502C40.6808 29.9851 40.2856 31.3046 39.5875 32.468C38.0143 35.0902 35.1374 36.719 32.0796 36.719H27.7344C29.4528 35.2311 29.7845 32.8644 29.7979 32.764C29.8254 32.5567 29.7632 32.3475 29.6268 32.1888C29.4906 32.0302 29.2932 31.9373 29.0841 31.9333C28.9973 31.9308 27.2138 31.9107 25.6156 32.8459C25.2834 31.0243 24.1055 29.6853 24.0474 29.6203C23.9081 29.4643 23.7089 29.3752 23.4998 29.3752C23.2906 29.3752 23.0914 29.4643 22.9521 29.6203C22.8941 29.6853 21.7162 31.0243 21.3839 32.8459C19.7862 31.9108 18.0035 31.9305 17.9154 31.9333C17.7064 31.9373 17.5089 32.0303 17.3727 32.1888C17.2364 32.3475 17.1741 32.5567 17.2017 32.764C17.215 32.8644 17.5466 35.2312 19.2652 36.719H14.92C11.8619 36.719 8.98503 35.0902 7.41181 32.468ZM26.7633 35.6174C26.2232 36.0816 25.5732 36.3501 24.9968 36.5056C25.2583 35.9922 25.5025 35.3672 25.6233 34.6735C25.6821 34.6153 25.7425 34.5581 25.8061 34.5035C26.5217 33.8886 27.4303 33.6166 28.1047 33.4966C27.8844 34.1455 27.479 35.0026 26.7633 35.6174ZM24.234 33.7815C24.234 34.725 23.8481 35.5914 23.4997 36.1812C23.1511 35.5912 22.7653 34.725 22.7653 33.7815C22.7653 32.838 23.1512 31.9716 23.4997 31.3818C23.8482 31.9718 24.234 32.8381 24.234 33.7815ZM21.3759 34.6732C21.497 35.3687 21.7421 35.9951 22.0044 36.5093C21.4297 36.3543 20.7803 36.0852 20.236 35.6174C19.5191 35.0016 19.1134 34.1425 18.8934 33.4935C19.5654 33.6122 20.4717 33.8836 21.1932 34.5035V34.5036C21.2567 34.5581 21.3172 34.6151 21.3759 34.6732ZM40.3903 43.66C40.3903 44.6919 39.5507 45.5315 38.5187 45.5315H8.4806C7.44862 45.5315 6.60905 44.6919 6.60905 43.66V40.0592C6.60905 39.0273 7.44862 38.1878 8.4806 38.1878H38.5188C39.5508 38.1878 40.3904 39.0273 40.3904 40.0593V43.66H40.3903Z" fill="#EDE2D7"/>
</g>
<defs>
<clipPath id="clip0_18680_947">
<rect width="47" height="47" fill="white"/>
</clipPath>
</defs>
</svg>
