<svg width="48" height="48" viewBox="0 0 48 48" fill="none" xmlns="http://www.w3.org/2000/svg">
<path d="M9.84966 25.6998C9.72466 24.5123 10.2247 23.6372 11.0997 22.8622C10.9247 22.7747 10.7747 22.7122 10.6372 22.6248C10.0497 22.2248 9.39966 21.8873 8.89966 21.3873C7.93716 20.4248 7.97466 19.0748 8.89966 18.0748C9.63716 17.2748 10.5997 16.8122 11.6122 16.4872C12.5997 16.1747 13.6247 15.9498 14.6497 15.6748C14.5747 15.4623 14.4622 15.2248 14.4122 14.9748C14.2372 14.0873 14.5872 13.3873 15.2497 12.8248C16.1122 12.0873 17.1622 11.6998 18.2497 11.4748C22.2247 10.6248 26.1997 10.5873 30.1497 11.6248C30.9372 11.8248 31.7122 12.1997 32.3872 12.6497C33.9622 13.7248 33.9372 15.4748 32.3497 16.5248C31.6997 16.9623 30.9372 17.2373 30.2997 17.5623C30.5872 18.0123 30.9247 18.5247 31.2622 19.0247C31.2997 19.0872 31.3747 19.1373 31.4497 19.1623C32.5122 19.5373 33.4247 20.1498 34.1247 21.0748C35.2497 18.8248 37.2747 18.0373 39.5247 17.5998C39.9372 17.5248 40.1497 17.7748 40.2747 18.1373C40.9747 20.2373 41.2122 22.3122 39.8747 24.2997C40.2122 24.3872 40.5372 24.4497 40.8497 24.5497C42.7372 25.1747 43.8997 26.5873 44.7997 28.2623C44.9622 28.5623 44.9247 28.8872 44.6372 29.1122C43.0497 30.2872 41.3497 31.1497 39.2872 30.8748C39.0247 30.8372 38.7747 30.7747 38.4497 30.7122C38.7997 32.2747 38.3997 33.6747 37.5247 34.9998C37.6997 35.0998 37.8497 35.1748 37.9747 35.2748C38.5247 35.6998 39.1372 36.0748 39.6122 36.5748C40.9747 37.9998 40.9497 39.7247 39.5872 41.1622C38.6247 42.1872 37.3997 42.8123 36.1247 43.3248C33.5622 44.3498 30.8747 44.8623 28.1372 45.1748C25.1872 45.5123 22.2247 45.5748 19.2622 45.3748C15.6247 45.1248 12.0372 44.6248 8.64966 43.1873C7.66216 42.7623 6.68716 42.1998 5.86216 41.5248C3.93716 39.9498 3.93716 37.8873 5.78716 36.1998C6.06216 35.9498 6.36216 35.7248 6.69966 35.4623C6.56216 35.3873 6.43716 35.3373 6.33716 35.2623C5.63716 34.8123 4.86216 34.4373 4.23716 33.8873C2.27466 32.1748 2.34966 29.7998 4.34966 28.1373C5.81216 26.9123 7.56216 26.3123 9.36216 25.8372C9.48716 25.7872 9.64966 25.7498 9.84966 25.6998ZM36.7497 35.9498C36.6247 36.1373 36.5872 36.1998 36.5372 36.2623C35.8872 36.9873 35.6997 37.0248 34.9497 36.3998C34.2122 35.7873 33.5247 35.1248 32.7747 34.4498C31.5622 35.2748 30.1497 35.8247 28.6747 36.2247C26.2997 36.8747 23.8747 37.1748 21.4372 37.2748C17.1372 37.4623 12.8747 37.3123 8.68716 36.1498C8.49966 36.0998 8.23716 36.1123 8.07466 36.2123C7.54966 36.5373 7.01216 36.8747 6.56216 37.2872C5.47466 38.3122 5.47466 39.3873 6.61216 40.3748C7.21216 40.8997 7.91216 41.3498 8.63716 41.6998C11.4747 43.0748 14.5497 43.6248 17.6497 43.9498C21.3872 44.3373 25.1247 44.2873 28.8372 43.7748C31.3747 43.4248 33.8622 42.8747 36.2122 41.8123C37.1247 41.3997 37.9872 40.9122 38.6747 40.1622C39.4872 39.2872 39.5372 38.3622 38.7122 37.4998C38.1497 36.9373 37.4497 36.4998 36.7497 35.9498ZM25.1997 30.1497C24.5497 30.1497 23.9497 30.1497 23.3372 30.1497C20.4622 30.1747 17.5997 30.0373 14.8122 29.2873C13.2247 28.8623 11.6872 28.3123 10.5122 27.0623C10.4372 26.9748 10.2247 26.9622 10.0997 26.9998C9.49966 27.1497 8.88716 27.2997 8.29966 27.4872C7.07466 27.8872 5.91216 28.3872 4.94966 29.2747C4.44966 29.7498 4.07466 30.2997 4.07466 31.0247C4.06216 31.9247 4.58716 32.5373 5.22466 33.0623C6.17466 33.8498 7.29966 34.3248 8.44966 34.6998C10.8497 35.4873 13.3372 35.8123 15.8372 35.9498C19.7747 36.1498 23.6872 36.0372 27.5497 35.1622C29.0622 34.8247 30.5247 34.3498 31.8372 33.4998C31.9747 33.4123 32.1372 33.1998 32.1247 33.0623C32.0622 32.5247 31.9247 31.9998 31.8247 31.4622C31.4622 31.5998 31.0872 31.7748 30.6872 31.8873C29.0372 32.3498 27.4872 31.9748 25.9622 31.3498C25.4122 31.1248 24.9997 30.8498 25.1997 30.1497ZM43.4622 28.4373C42.3122 26.3748 40.4747 25.1372 38.2372 25.7997C37.8747 25.9122 37.5372 25.8497 37.3622 25.4622C37.1997 25.0747 37.3372 24.7498 37.6872 24.5373C39.6622 23.3748 39.9872 21.1623 39.1747 18.9748C38.3872 19.1248 37.6247 19.3998 36.9372 19.8248C35.8247 20.5123 35.2122 21.5247 35.0997 22.8123C35.0622 23.2498 35.0622 23.6873 34.5122 23.7873C34.1247 23.8623 33.8872 23.6123 33.6872 22.9748C33.6747 22.9498 33.6747 22.9123 33.6622 22.8873C33.0372 21.0123 30.6747 19.6497 28.7997 20.0872C28.7997 20.4622 28.7872 20.8622 28.7997 21.2372C28.8997 23.1122 29.7122 24.4748 31.5372 25.1373C31.9872 25.2998 32.1872 25.6247 32.0747 25.9872C31.9497 26.3997 31.6247 26.4873 31.2247 26.4748C28.9497 26.3998 27.1122 27.8748 26.6997 30.1248C26.9997 30.2248 27.2997 30.3498 27.6122 30.4373C29.5247 31.0123 31.2247 30.7747 32.5122 29.0872C32.7497 28.7873 33.0622 28.6998 33.3747 28.8873C33.7122 29.0998 33.7497 29.4373 33.5872 29.7997C32.7872 31.6747 33.2997 33.6498 35.6997 35.2623C36.0247 34.7998 36.3872 34.3497 36.6747 33.8497C37.5122 32.4122 37.5122 30.9872 36.5747 29.5872C36.3622 29.2747 36.1997 28.9373 36.5497 28.6248C36.8997 28.3123 37.2122 28.5247 37.5622 28.7248C38.0872 29.0373 38.6247 29.3997 39.2122 29.5497C40.8247 29.9622 42.1622 29.2623 43.4622 28.4373ZM29.4622 18.7748C28.8622 18.3498 28.3997 17.9372 27.6622 18.0497C25.6497 18.3622 23.6247 18.3872 21.5997 18.2372C19.9247 18.1122 18.2372 17.9123 16.6872 17.2248C16.1622 16.9998 15.6747 16.9873 15.1497 17.0623C14.8122 17.1123 14.4747 17.1623 14.1372 17.2248C12.7622 17.4998 11.3872 17.7998 10.2247 18.6498C9.19966 19.3997 9.17466 20.3123 10.2622 20.9622C11.0622 21.4497 11.9622 21.8248 12.8622 22.0748C15.6497 22.8498 18.5247 22.9123 21.3997 22.8123C23.2997 22.7498 25.1872 22.5498 27.0247 21.9998C27.2872 21.9248 27.3872 21.8247 27.3872 21.5247C27.3747 20.8622 27.4122 20.1873 27.4497 19.5123C27.4872 18.9873 27.7372 18.7873 28.2747 18.7748C28.6247 18.7748 28.9872 18.7748 29.4622 18.7748ZM27.6372 23.1497C27.3997 23.2247 27.1122 23.3248 26.7997 23.3873C22.3372 24.4248 17.8622 24.3623 13.3997 23.4998C12.7872 23.3872 12.3622 23.4872 11.9122 23.8622C10.8622 24.7372 10.8122 25.7872 11.9247 26.5872C12.6122 27.0872 13.4247 27.4998 14.2372 27.7623C17.9247 28.9373 21.7122 28.9748 25.5247 28.7248C25.6372 28.7122 25.7872 28.6122 25.8372 28.5247C26.5622 27.0747 27.5872 25.9623 29.0872 25.4748C28.6247 24.7123 28.1497 23.9622 27.6372 23.1497ZM24.6247 17.0497C25.4872 16.9497 27.1622 16.7998 28.8247 16.5373C29.8497 16.3748 30.8622 16.0498 31.6997 15.3748C32.2997 14.8873 32.3372 14.3623 31.7497 13.8997C31.3247 13.5747 30.8372 13.2998 30.3372 13.1123C28.9497 12.5748 27.4747 12.3873 25.9872 12.2998C23.5247 12.1623 21.0622 12.1748 18.6372 12.7248C17.6997 12.9373 16.7622 13.2123 16.0122 13.8748C15.4497 14.3748 15.4372 14.9248 16.0247 15.3748C16.4747 15.7123 16.9997 15.9998 17.5372 16.1873C19.5622 16.9123 21.6872 16.9748 24.6247 17.0497Z" fill="#EDE2D7"/>
<path d="M37.7988 10.3373C38.4488 9.78728 39.1863 9.49978 40.0238 9.54978C41.0738 9.62478 42.0363 9.97478 42.9363 10.4748C43.6863 10.8873 44.4113 11.3498 45.1113 11.8373C45.3238 11.9873 45.5363 12.3373 45.5113 12.5498C45.4738 12.7498 45.1363 12.9873 44.8863 13.0623C44.1113 13.3123 43.4113 13.7123 42.8738 14.2998C41.8738 15.3873 40.6863 15.5123 39.3613 15.1248C37.9113 14.6998 36.6113 13.9498 35.4113 13.0623C35.2988 12.9748 35.1738 12.8248 35.1613 12.6998C35.0613 11.7623 34.5113 11.0623 33.8738 10.4748C32.8238 9.49978 32.7113 8.36228 33.0738 7.09978C33.4988 5.61228 34.2988 4.31228 35.2363 3.09978C35.3613 2.93728 35.6863 2.79978 35.8613 2.84978C36.0488 2.89978 36.2863 3.14978 36.3238 3.34978C36.4738 4.17478 36.9238 4.83728 37.4988 5.37478C38.6488 6.42478 38.7363 7.64978 38.2863 9.01228C38.1613 9.44978 37.9738 9.88728 37.7988 10.3373ZM35.9613 10.9998C36.5738 10.0373 37.1488 9.04978 37.3113 7.91228C37.3613 7.56228 37.3238 7.11228 37.1238 6.84978C36.6363 6.16228 36.0488 5.53728 35.3988 4.78728C34.9863 5.77478 34.5488 6.69978 34.1988 7.66228C34.0113 8.18728 34.0363 8.76228 34.4613 9.24978C34.9613 9.78728 35.4363 10.3748 35.9613 10.9998ZM37.1738 12.6623C38.1363 13.2498 39.1238 13.7998 40.2613 13.9998C40.7363 14.0873 41.1863 14.0248 41.5738 13.6998C42.1488 13.2123 42.7488 12.7373 43.3613 12.2498C42.3738 11.6623 41.3488 11.0748 40.1613 10.8873C39.6738 10.8123 39.2488 10.9373 38.8738 11.2748C38.3363 11.7498 37.7613 12.1873 37.1738 12.6623Z" fill="#EDE2D7"/>
<path d="M10.7117 11.0624C9.33669 9.76241 9.56169 8.29991 10.2242 6.87491C10.7367 5.76241 11.4242 4.73741 12.0742 3.69991C12.1742 3.53741 12.4992 3.39991 12.6867 3.41241C12.8617 3.43741 13.1242 3.67491 13.1617 3.84991C13.3367 4.72491 13.8367 5.41241 14.4492 5.97491C15.5367 6.98741 15.6367 8.16241 15.2242 9.48741C14.7742 10.8999 14.0117 12.1374 13.1242 13.3124C13.0242 13.4499 12.8492 13.5874 12.6867 13.6249C11.8867 13.7999 11.2242 14.2249 10.6992 14.7999C9.54919 16.0749 8.17419 16.1874 6.73669 15.5874C5.44919 15.0499 4.24919 14.3249 3.02419 13.6499C2.87419 13.5624 2.72419 13.2624 2.76169 13.1124C2.83669 12.8874 3.03669 12.5999 3.23669 12.5499C4.19919 12.2749 4.98669 11.7499 5.68669 11.0499C6.52419 10.1999 7.52419 10.0499 8.62419 10.3374C9.28669 10.5249 9.94919 10.7999 10.7117 11.0624ZM12.8742 11.7124C13.2867 10.7374 13.7367 9.82491 14.0492 8.86241C14.1867 8.44991 14.1492 7.83741 13.9367 7.48741C13.4992 6.77491 12.8742 6.18741 12.3117 5.51241C11.7117 6.49991 11.1367 7.49991 11.0117 8.67491C10.9742 9.02491 11.0242 9.46241 11.2242 9.72491C11.6867 10.3999 12.2617 10.9874 12.8742 11.7124ZM11.1867 12.7499C10.2242 12.3374 9.29919 11.9124 8.33669 11.5624C7.87419 11.3874 7.33669 11.3374 6.89919 11.6499C6.22419 12.1374 5.59919 12.6874 4.92419 13.2374C5.87419 13.8124 6.83669 14.3499 7.93669 14.5624C8.43669 14.6624 8.92419 14.6374 9.34919 14.2749C9.89919 13.7874 10.4867 13.3249 11.1867 12.7499Z" fill="#EDE2D7"/>
</svg>
