<svg width="47" height="47" viewBox="0 0 47 47" fill="none" xmlns="http://www.w3.org/2000/svg">
<path fill-rule="evenodd" clip-rule="evenodd" d="M22.9006 19.1935C22.7203 20.0805 21.9329 20.7233 21.0276 20.7233C20.1221 20.7233 19.3348 20.0805 19.1555 19.1935C19.0846 18.8464 19.3093 18.508 19.6553 18.4381C20.0035 18.3677 20.3409 18.5919 20.4123 18.9391C20.5488 19.6065 21.5104 19.601 21.6443 18.9391C21.7141 18.5919 22.0521 18.3677 22.3997 18.4381C22.7468 18.508 22.971 18.8465 22.9006 19.1935ZM24.1422 19.1935C24.0718 18.8464 24.296 18.508 24.6432 18.4381C24.9908 18.3677 25.3287 18.5919 25.3991 18.9391C25.5333 19.6033 26.4962 19.6037 26.631 18.9391C26.7014 18.5919 27.0393 18.3677 27.3875 18.4381C27.7346 18.508 27.9583 18.8465 27.8884 19.1935C27.7081 20.0805 26.9208 20.7233 26.0154 20.7233C25.1099 20.7233 24.3226 20.0805 24.1422 19.1935ZM5.97909 40.6317H14.8473C15.4122 41.7606 16.2243 42.6848 17.2743 43.3766H9.3018C7.65511 43.3749 6.2797 42.1917 5.97909 40.6317ZM9.9332 33.9213C11.2149 32.3483 13.1557 31.5831 15.8654 31.5831C18.4191 31.5831 20.4968 29.5059 20.4968 26.9522V26.6495C22.4237 27.524 24.5661 27.5364 26.5032 26.6733V26.9522C26.5032 29.5059 28.581 31.5831 31.1341 31.5831C36.3448 31.5831 38.4085 34.4085 38.986 39.3494H32.6537C33.0246 38.0791 33.0999 36.6629 32.8513 35.1928C32.8058 34.9231 32.5958 34.7124 32.3261 34.6669C30.4021 34.3421 28.6016 34.5532 27.067 35.274C26.4665 33.7837 25.372 32.4267 23.8721 31.36C23.6495 31.2014 23.3511 31.2019 23.1291 31.36C21.6276 32.4268 20.5337 33.7838 19.9342 35.274C18.399 34.5533 16.5986 34.3421 14.6746 34.6669C14.4054 34.7124 14.1942 34.9231 14.1487 35.1928C13.9002 36.6629 13.9755 38.0791 14.3474 39.3494H8.01513C8.29516 36.9402 8.92439 35.1592 9.9332 33.9213ZM17.0291 21.0552C18.2382 24.0849 20.766 26.0305 23.5212 26.0305C26.4161 26.0305 29.0661 23.8564 30.1844 20.5949C29.3851 19.0153 28.4072 17.6984 27.2738 16.6815C26.2493 15.7615 24.9123 14.9946 23.3565 14.4191C20.2624 15.2964 18.1901 17.4694 17.0291 21.0552ZM16.0944 13.2565C15.2545 14.8712 15.3195 16.9225 16.2861 19.3744C17.3962 16.7519 19.0884 14.8912 21.3416 13.812C19.6371 13.403 17.8948 13.2227 16.0944 13.2565ZM16.2774 9.81899C16.0706 10.4071 16.0511 11.1294 16.2195 11.9715C20.5463 11.8994 25.2752 13.1624 28.131 15.7268C29.1459 16.6387 30.0442 17.7591 30.8131 19.069C31.2729 17.7769 31.4114 16.5196 31.2355 15.2519C30.8932 12.7886 29.5 10.5419 27.5077 9.24343C25.5962 7.99689 23.3045 7.23982 21.3773 7.2182C19.7089 7.18596 16.9116 8.0219 16.2774 9.81899ZM24.7628 3.62317C27.137 3.62317 28.8439 5.89787 28.209 8.16957C26.1084 6.80009 23.571 5.96678 21.4147 5.93641C21.9324 4.57567 23.2564 3.62317 24.7628 3.62317ZM23.5 43.2185C27.252 40.2723 27.2531 35.6278 23.5 32.683C19.7464 35.63 19.7475 40.27 23.5 43.2185ZM27.5943 37.9507C27.5943 39.9245 26.7522 41.8338 25.2388 43.3765C29.4995 43.3765 32.1713 40.1675 31.6534 35.8654C30.0955 35.6786 28.6578 35.9022 27.4448 36.5168C27.5429 36.9879 27.5943 37.4666 27.5943 37.9507ZM21.7613 43.3765C19.8902 41.4693 19.0384 39.0008 19.5552 36.5168C18.3423 35.9022 16.9045 35.6786 15.3467 35.8654C14.8306 40.168 17.4993 43.3765 21.7613 43.3765ZM37.6983 43.3765H29.7257C30.7736 42.6881 31.5916 41.7563 32.1526 40.6316H41.0203C40.7204 42.1917 39.345 43.3749 37.6983 43.3765ZM43.2568 43.3765H40.9045C41.8017 42.5253 42.3644 41.3226 42.3644 39.9905C42.3644 39.6359 42.0774 39.3494 41.7232 39.3494H40.2769C39.9758 36.6143 39.2491 34.5696 38.061 33.1112C36.5426 31.2463 34.212 30.3008 31.1341 30.3008C29.2886 30.3008 27.7854 28.7987 27.7854 26.9522V25.9493C28.0129 25.7922 28.2354 25.6239 28.4515 25.4408C29.8296 24.2722 30.8725 22.663 31.472 20.7866C32.4174 18.8735 32.7656 16.9523 32.5057 15.0759C32.177 12.7145 31.002 10.5241 29.2832 8.9932C30.5365 5.83264 28.2092 2.34082 24.7627 2.34082C22.5149 2.34082 20.5667 3.9031 20.0408 6.04527C18.1261 6.35556 15.7878 7.35243 15.0687 9.39232C14.7525 10.2891 14.739 11.3174 15.0291 12.5293C13.7506 14.8405 13.996 17.8014 15.7618 21.3352C16.4999 23.2906 17.7215 24.8712 19.2138 25.9158V26.9523C19.2138 28.7988 17.7123 30.3009 15.8652 30.3009C12.7884 30.3009 10.4583 31.2464 8.93877 33.1113C7.75071 34.5696 7.02399 36.6143 6.72291 39.3495H5.27729C4.92366 39.3495 4.63621 39.636 4.63621 39.9906C4.63621 41.3227 5.19776 42.5254 6.09659 43.3766H3.74274C3.38911 43.3766 3.10156 43.6642 3.10156 44.0178C3.10156 44.373 3.38911 44.6594 3.74274 44.6594H43.2569C43.6121 44.6594 43.8986 44.373 43.8986 44.0178C43.8985 43.6641 43.6121 43.3765 43.2568 43.3765Z" fill="#EDE2D7"/>
</svg>
