<svg width="48" height="48" viewBox="0 0 48 48" fill="none" xmlns="http://www.w3.org/2000/svg">
<path d="M32.5149 26.319C34.1112 24.8854 33.7064 22.928 33.7662 22.5398H33.8878C35.6151 22.5398 37.0204 21.0068 37.0204 19.1224C37.0204 18.2879 36.6445 17.5478 36.0681 17.0915V15.1532C36.0681 9.91322 32.8204 5.48568 28.4057 4.13866C27.9207 2.27472 26.3595 0.963867 24.5474 0.963867C22.7353 0.963867 21.1741 2.27472 20.6892 4.13866C16.2744 5.48559 13.0267 9.91331 13.0267 15.1532V17.0916C12.4503 17.5479 12.0745 18.288 12.0745 19.1226C12.0745 21.0069 13.4797 22.5399 15.2071 22.5399H15.3287V23.4235C15.3287 24.5705 15.8032 25.6216 16.58 26.3191C12.8652 28.3644 10.4492 32.5614 10.4492 37.1784V46.4187C10.4492 47.2706 11.0846 47.9638 11.8657 47.9638H15.2921C15.6408 47.9638 15.9233 47.6556 15.9233 47.2753C15.9233 46.895 15.6408 46.5868 15.2921 46.5868H11.8657C11.7806 46.5868 11.7115 46.5114 11.7115 46.4187V37.1784C11.7115 32.7224 14.2494 28.7089 18.0476 27.1151L19.1715 27.5192L21.0584 30.6878C21.1793 30.8909 21.3817 31.0013 21.5882 31.0013C21.706 31.0013 21.8252 30.9653 21.9314 30.8901C22.2238 30.683 22.3067 30.2566 22.1168 29.9377L21.0868 28.2079L23.4706 29.0651C24.153 29.3104 24.9173 29.3192 25.6243 29.0651L28.0081 28.2079L24.5474 34.0193L23.4936 32.2494C23.3036 31.9305 22.9128 31.8399 22.6204 32.0471C22.3281 32.2542 22.2451 32.6806 22.435 32.9995L23.8038 35.2982C23.0712 36.6743 20.6967 41.5079 20.5417 46.5869H17.8156C17.4669 46.5869 17.1844 46.8951 17.1844 47.2754C17.1844 47.6557 17.4669 47.9639 17.8156 47.9639H37.2291C38.0101 47.9639 38.6456 47.2707 38.6456 46.4188V37.1785C38.6456 32.5614 36.2297 28.3644 32.5149 26.319ZM33.8878 21.1628H33.7662V17.9911H34.7211C35.2929 17.9911 35.7581 18.4987 35.7581 19.1225C35.758 20.2475 34.919 21.1628 33.8878 21.1628ZM24.5474 2.34082C25.5447 2.34082 26.4313 2.91996 26.914 3.80929C26.4788 3.74889 26.0352 3.71777 25.5852 3.71777H23.5097C23.0595 3.71777 22.6161 3.74889 22.1808 3.80929C22.6634 2.91996 23.55 2.34082 24.5474 2.34082ZM14.289 15.1532C14.289 9.60689 18.4254 5.09472 23.5096 5.09472H25.5851C30.6694 5.09472 34.8057 9.60689 34.8057 15.1532V16.6165C34.6899 16.6119 34.8003 16.6154 33.7661 16.6142V14.3448C33.7661 14.1597 33.6978 13.9825 33.5766 13.853C33.4554 13.7235 33.2904 13.6524 33.1219 13.6565C29.233 13.7433 26.7365 12.9606 25.7007 11.3268C25.4011 10.8544 24.9306 10.5609 24.4096 10.5218C23.8986 10.4836 23.4067 10.6979 23.0601 11.1103C21.5382 12.9203 19.2219 13.7536 15.977 13.6565C15.807 13.6497 15.6418 13.7217 15.5196 13.8513C15.3974 13.9809 15.3286 14.1589 15.3286 14.3447V16.6141C14.2943 16.6153 14.4044 16.6118 14.289 16.6164V15.1532ZM15.207 21.1628C14.1757 21.1628 13.3367 20.2475 13.3367 19.1224C13.3367 18.4986 13.8018 17.9911 14.3737 17.9911H15.3286V21.1628H15.207ZM25.2291 27.7574C24.7895 27.9153 24.3054 27.9155 23.8657 27.7574C22.8503 27.3922 19.6955 26.2578 18.0866 25.6792C17.1919 25.3576 16.5909 24.451 16.5909 23.4234C16.5909 22.4024 16.5909 15.9896 16.5909 15.0408C19.8893 15.0186 22.3144 14.0342 23.9902 12.0413C24.1078 11.9017 24.25 11.8906 24.3231 11.8957C24.4589 11.9059 24.5826 11.9841 24.6625 12.1101C25.9075 14.0739 28.4756 15.0349 32.504 15.0402V23.4234C32.504 24.451 31.9029 25.3576 31.0083 25.6792L25.2291 27.7574ZM37.3834 46.4187C37.3834 46.5114 37.3142 46.5868 37.2291 46.5868H21.8048C21.99 41.1553 24.984 35.8216 25.0796 35.6532L29.9233 27.5193L31.0472 27.1151C34.8454 28.709 37.3834 32.7225 37.3834 37.1784V46.4187Z" fill="#EDE2D7"/>
<path d="M26.0848 23.2236C25.0509 23.697 24.0459 23.6969 23.0122 23.2236C22.6909 23.0769 22.3209 23.2414 22.1861 23.5921C22.0512 23.9428 22.2024 24.3463 22.5238 24.4934C23.1956 24.8009 23.8721 24.9546 24.5487 24.9546C25.2251 24.9546 25.9015 24.8008 26.5734 24.4934C26.8948 24.3462 27.046 23.9428 26.9112 23.5921C26.7762 23.2416 26.4064 23.0767 26.0848 23.2236Z" fill="#EDE2D7"/>
<path d="M43.9664 0.963867C43.6178 0.963867 43.3353 1.27203 43.3353 1.65234V17.2561C43.3353 18.8008 42.7841 20.2532 41.7833 21.3459L39.7031 23.6169C39.527 23.809 39.2328 23.8152 39.0523 23.6093C38.881 23.4139 38.883 23.1102 39.0567 22.9177L40.906 20.8684C41.2727 20.462 41.4947 19.9249 41.5311 19.3559L41.9711 12.4739C42.0012 12.0024 41.717 11.5824 41.2953 11.475C40.8734 11.3676 40.4482 11.6071 40.2839 12.0443L38.9044 15.7172C38.817 15.95 38.4986 15.8803 38.4986 15.6299V12.4087C38.4986 10.712 39.0403 9.05373 40.0238 7.73947C40.3272 7.33401 40.4945 6.82242 40.4945 6.29891V1.65234C40.4945 1.27203 40.212 0.963867 39.8633 0.963867C39.5147 0.963867 39.2322 1.27203 39.2322 1.65234V6.29891C39.2322 6.506 39.1661 6.70832 39.0461 6.86869C37.8791 8.42813 37.2363 10.3956 37.2363 12.4088V15.63C37.2363 16.5161 37.8972 17.237 38.7094 17.237C39.3098 17.237 39.8448 16.8453 40.0724 16.2394L40.5455 14.9796L40.2719 19.2601C40.2563 19.5018 40.1621 19.73 40.0064 19.9025L38.1572 21.9518C37.5016 22.6784 37.4941 23.8245 38.1403 24.5612C38.8062 25.3207 39.9145 25.3344 40.5961 24.5901L42.6763 22.3192C43.9153 20.9665 44.5976 19.1684 44.5976 17.2562V1.65234C44.5975 1.27203 44.315 0.963867 43.9664 0.963867Z" fill="#EDE2D7"/>
<path d="M10.9384 21.9517L9.08928 19.9026C8.93343 19.73 8.83918 19.5018 8.8237 19.2601L8.54996 14.9794L9.02313 16.2393C9.25076 16.8454 9.78579 17.237 10.3862 17.237C11.1984 17.237 11.8592 16.5161 11.8592 15.63V12.4088C11.8592 10.3956 11.2165 8.42822 10.0495 6.86869C9.92943 6.70832 9.86337 6.506 9.86337 6.29891V1.65234C9.86337 1.27203 9.58088 0.963867 9.23225 0.963867C8.88361 0.963867 8.60112 1.27203 8.60112 1.65234V6.29891C8.60112 6.82242 8.76824 7.33401 9.07177 7.73947C10.0553 9.05373 10.597 10.712 10.597 12.4087V15.6299C10.597 15.88 10.2787 15.9503 10.1912 15.7172L8.81167 12.0443C8.6474 11.607 8.22152 11.3675 7.80043 11.475C7.37859 11.5823 7.09425 12.0022 7.12437 12.4739L7.56448 19.356C7.60091 19.9248 7.82282 20.462 8.18963 20.8685L10.0388 22.9176C10.2125 23.1103 10.2145 23.4139 10.0433 23.6092C9.86666 23.8106 9.57306 23.8142 9.39247 23.6169L7.31228 21.3459C6.3114 20.2533 5.7603 18.8008 5.7603 17.2561V1.65234C5.7603 1.27203 5.47781 0.963867 5.12917 0.963867C4.78054 0.963867 4.49805 1.27203 4.49805 1.65234V17.2561C4.49805 19.1683 5.18034 20.9665 6.41936 22.3191L8.49955 24.59C9.18041 25.3336 10.2886 25.3213 10.9554 24.5611C11.6015 23.8245 11.594 22.6784 10.9384 21.9517Z" fill="#EDE2D7"/>
<path d="M22.4646 19.3257C22.3373 18.9716 21.9712 18.7972 21.6467 18.9358C21.2921 19.0873 21.0407 19.0873 20.6857 18.9358C20.3613 18.7973 19.9949 18.9717 19.8679 19.3257C19.7407 19.6797 19.9008 20.0792 20.2253 20.2179C20.5507 20.357 20.8584 20.4264 21.1662 20.4264C21.474 20.4264 21.7818 20.3569 22.1071 20.2179C22.4317 20.0792 22.5917 19.6798 22.4646 19.3257Z" fill="#EDE2D7"/>
<path d="M28.4104 18.9358C28.0557 19.0872 27.8041 19.0872 27.4494 18.9358C27.1248 18.7972 26.7586 18.9717 26.6315 19.3257C26.5044 19.6797 26.6645 20.0792 26.989 20.2179C27.3143 20.357 27.6221 20.4264 27.9299 20.4264C28.2377 20.4264 28.5454 20.3569 28.8708 20.2179C29.1953 20.0792 29.3554 19.6798 29.2282 19.3257C29.101 18.9717 28.7348 18.7972 28.4104 18.9358Z" fill="#EDE2D7"/>
</svg>
