<svg width="48" height="48" viewBox="0 0 48 48" fill="none" xmlns="http://www.w3.org/2000/svg">
<g clip-path="url(#clip0_18719_4519)">
<path d="M0.0878906 16.0875C0.450108 15.388 0.737383 15.3131 1.43684 15.7003C3.22294 16.712 5.00905 17.7487 6.79515 18.7479C7.14488 18.9478 7.33223 19.2101 7.41966 19.6097C8.5313 24.7058 9.66791 29.7893 10.792 34.8853C11.1043 36.3217 11.0418 37.7706 10.9419 39.2194C10.7546 41.8798 10.5797 44.5403 10.4048 47.2007C10.3799 47.5879 10.23 47.9126 9.84277 47.9501C9.60546 47.9751 9.2932 47.8377 9.13083 47.6628C8.99343 47.5254 8.99343 47.2257 9.00593 47.0008C9.10585 45.3646 9.23075 43.7409 9.31818 42.1047C9.4181 40.1562 9.61795 38.2077 9.51803 36.2717C9.44308 34.7604 8.99343 33.2741 8.66869 31.7877C7.85682 28.0407 7.00749 24.3061 6.19562 20.5715C6.0957 20.1343 5.90834 19.872 5.52115 19.6597C3.9224 18.7729 2.34862 17.8736 0.774854 16.9493C0.512559 16.7994 0.325205 16.5122 0.100381 16.2873C0.0878906 16.2124 0.0878906 16.1499 0.0878906 16.0875Z" fill="white"/>
<path d="M0.0878906 4.87116C0.425127 4.28412 0.5875 4.22167 1.31193 4.33408C4.57189 4.85867 7.81935 5.40825 11.0918 5.88287C11.6539 5.97031 12.2534 5.79544 12.8404 5.70801C14.5391 5.42074 16.2378 5.10848 17.9489 4.79622C18.0364 4.78373 18.1238 4.75875 18.2487 4.73377C18.2487 3.50973 18.2612 2.28569 18.2362 1.07413C18.2237 0.636973 18.3486 0.312227 18.7108 0.0874023C18.8607 0.0874023 19.0231 0.0874023 19.173 0.0874023C19.5227 0.299736 19.6601 0.599502 19.6601 1.01168C19.6351 2.38561 19.6601 3.75953 19.6476 5.12097C19.6476 5.74548 19.4727 5.95782 18.8607 6.07023C16.4876 6.4949 14.1144 6.95704 11.7288 7.33174C11.1667 7.41917 10.5547 7.2568 9.98016 7.16937C6.9825 6.69474 3.98485 6.19513 0.987188 5.7205C0.537539 5.64556 0.237774 5.4707 0.0878906 5.04603C0.0878906 4.98358 0.0878906 4.92113 0.0878906 4.87116Z" fill="white"/>
<path d="M29.464 0.0874023C29.8388 0.337207 29.9387 0.686934 29.9262 1.12409C29.9012 2.32316 29.9137 3.50973 29.9137 4.73377C31.0378 4.93362 32.1245 5.13346 33.1986 5.3333C33.3485 5.35828 33.5109 5.38327 33.6608 5.43323C34.0355 5.55813 34.2353 5.88287 34.1479 6.27007C34.048 6.65727 33.7732 6.8696 33.3985 6.80715C31.9371 6.56984 30.4882 6.29505 29.0394 6.02027C28.7021 5.95782 28.5023 5.70801 28.5023 5.34579C28.5023 3.83447 28.4773 2.32316 28.5148 0.811836C28.5273 0.562032 28.827 0.324717 28.9894 0.0874023C29.1643 0.0874023 29.3142 0.0874023 29.464 0.0874023Z" fill="white"/>
<path d="M12.9029 18.0609C13.3276 19.5223 13.7398 20.9461 14.1644 22.3575C14.2144 22.5324 14.3393 22.6823 14.4517 22.8322C15.4135 23.9813 16.3877 25.1179 17.3494 26.2545C17.6867 26.6667 17.6992 27.1038 17.3619 27.3661C17.0497 27.6034 16.6875 27.6284 16.4377 27.3287C15.2761 25.9922 14.127 24.6308 12.9904 23.2568C12.8904 23.1319 12.8654 22.9446 12.8155 22.7822C12.3908 21.3708 11.9786 19.9594 11.554 18.4981C11.1668 18.6854 10.9794 18.9602 11.0294 19.3349C11.2042 20.7338 11.3666 22.1452 11.5914 23.5441C11.6414 23.8689 11.8787 24.1936 12.1035 24.4684C12.9779 25.5051 13.8772 26.5168 14.764 27.541C14.7889 27.5785 14.8264 27.6159 14.8514 27.6409C15.2386 28.103 15.2636 28.5277 14.9138 28.8275C14.5641 29.1148 14.1769 29.0398 13.7897 28.5902C13.2901 28.0156 12.7905 27.4411 12.2909 26.8665C12.1535 26.7041 12.0036 26.5418 11.7788 26.4294C11.8412 26.5667 11.9037 26.7166 11.9786 26.854C12.7405 28.3154 13.5149 29.7767 14.2519 31.2506C14.3643 31.4879 14.4017 31.8376 14.3268 32.0749C14.2644 32.2498 13.9396 32.4497 13.7523 32.4372C13.5149 32.4122 13.2152 32.2373 13.0903 32.0375C12.5782 31.1507 12.116 30.2264 11.6414 29.3146C9.79285 25.7799 10.1426 26.6792 9.81783 22.6198C9.74289 21.6081 9.66795 20.5964 9.593 19.5847C9.49308 18.4356 10.0801 17.4988 11.1668 17.1116C11.8038 16.8868 12.4283 16.6745 13.0778 16.4871C14.1769 16.1499 15.1637 16.6495 15.5384 17.7361C15.9131 18.8228 16.2753 19.9219 16.6375 21.0086C16.6875 21.171 16.7624 21.3333 16.8748 21.4457C17.899 22.4075 18.9232 23.3568 19.9474 24.3185C19.9724 24.3435 20.0224 24.356 20.1223 24.4184C20.1223 23.6315 20.0973 22.8946 20.1223 22.1577C20.1722 20.5839 21.7835 19.6097 23.1199 20.3591C23.4946 20.5714 23.7819 20.9461 24.1192 21.2459C24.5064 20.5465 25.1309 20.1093 26.0302 20.1343C27.0169 20.1593 27.8787 20.8962 27.9661 21.8829C28.0286 22.5449 28.0036 23.2194 28.0036 23.8938C28.0036 24.0562 28.0036 24.2186 28.0036 24.5183C28.6281 23.9313 29.1277 23.3942 29.7023 22.9571C31.0138 21.9703 31.8256 20.6963 32.1754 19.0976C32.2753 18.6105 32.4751 18.1483 32.6375 17.6737C32.9997 16.687 33.9615 16.1874 34.9732 16.4871C35.6726 16.687 36.3721 16.9118 37.059 17.1616C38.0083 17.4988 38.6078 18.3607 38.5454 19.3599C38.4205 21.4457 38.2831 23.5316 38.0583 25.605C37.9833 26.267 37.721 26.929 37.4213 27.541C36.2597 29.8517 35.0356 32.1249 33.8615 34.4231C33.7491 34.6479 33.6992 34.9602 33.7491 35.21C34.611 39.0695 35.4853 42.929 36.3596 46.7884C36.3721 46.8509 36.3846 46.9134 36.3971 46.9758C36.5095 47.5379 36.3346 47.9126 35.8975 48.0125C35.4728 48.1124 35.1355 47.8376 35.0106 47.2756C34.1988 43.6659 33.4369 40.0312 32.5251 36.4465C32.2003 35.1351 32.3502 34.0859 33.0122 32.9243C34.1863 30.8759 35.223 28.7401 36.3221 26.6417C36.3596 26.5667 36.3971 26.4793 36.3721 26.3419C35.7476 27.0539 35.1231 27.7783 34.4985 28.4902C33.9864 29.0773 33.6242 29.1772 33.2495 28.8525C32.8873 28.5402 32.9373 28.128 33.4244 27.566C34.3112 26.5418 35.2355 25.5425 36.0848 24.4809C36.3721 24.1187 36.5969 23.644 36.6718 23.1944C36.8842 21.9703 37.0091 20.7338 37.159 19.4973C37.2089 19.0976 37.0715 18.7603 36.6469 18.548C36.5719 18.7728 36.4845 18.9852 36.422 19.1975C36.0723 20.4091 35.7226 21.6206 35.3604 22.8197C35.2854 23.0695 35.173 23.3193 35.0106 23.5191C33.9864 24.7557 32.9373 25.9797 31.9006 27.2038C31.5633 27.6034 31.1262 27.6784 30.8014 27.4036C30.4642 27.1163 30.4642 26.7041 30.8139 26.292C31.7257 25.2053 32.6625 24.1436 33.5618 23.0445C33.7991 22.7572 33.9989 22.395 34.1113 22.0453C34.5235 20.7588 34.8857 19.4598 35.2854 18.1109C35.0981 18.0484 34.9232 17.986 34.7484 17.9235C34.3362 17.7611 34.0989 17.9235 33.974 18.3232C33.6117 19.4473 33.237 20.5714 32.8498 21.6831C32.7499 21.9828 32.5626 22.2826 32.3377 22.4949C30.9138 23.8439 29.465 25.1803 28.0286 26.5168C27.7538 26.7666 27.4915 27.0164 27.0793 26.8415C26.6547 26.6667 26.6047 26.3045 26.6172 25.9173C26.6172 24.7307 26.6172 23.5441 26.6172 22.3575C26.6172 21.9454 26.4923 21.6331 26.0551 21.5831C25.6055 21.5332 25.4681 21.8454 25.3557 22.2326C24.5813 24.943 24.8436 27.7034 24.8436 30.4512C24.8436 30.8634 25.0185 31.2631 25.1309 31.6753C25.1933 31.8876 25.3057 32.0749 25.4056 32.2748C26.5423 34.5855 26.5173 34.5855 26.6047 37.121C26.7171 40.4059 26.867 43.6909 27.0044 46.9758C27.0044 47.0632 27.0169 47.1632 27.0169 47.2506C27.0044 47.7127 26.7421 48.025 26.3299 48.0375C25.9427 48.05 25.6305 47.7877 25.593 47.338C25.5306 46.5761 25.5181 45.8142 25.4806 45.0523C25.3432 41.7674 25.2183 38.4824 25.0684 35.1975C25.0559 34.8728 24.906 34.548 24.7686 34.2358C24.5813 33.7986 24.344 33.3739 24.0817 32.8493C23.707 33.8236 23.1074 34.598 23.0825 35.6721C22.9825 39.3318 22.7952 42.9914 22.6328 46.6511C22.6203 46.8634 22.6078 47.0882 22.5953 47.3005C22.5454 47.7752 22.2581 48.0625 21.8584 48.0375C21.4462 48.025 21.159 47.6877 21.1715 47.2006C21.1964 46.3888 21.2339 45.5769 21.2714 44.765C21.4088 41.4801 21.5587 38.1952 21.7085 34.9102C21.721 34.623 21.7835 34.3232 21.9084 34.0609C23.5946 30.5636 23.3323 31.6128 23.3947 27.6409C23.4197 25.8048 23.2698 24.0062 22.8327 22.2201C22.7202 21.7455 22.4954 21.5082 22.1332 21.5707C21.696 21.6331 21.5711 21.9454 21.5711 22.345C21.5711 23.5316 21.5711 24.7182 21.5711 25.9048C21.5711 26.292 21.5337 26.6667 21.109 26.829C20.6968 26.9914 20.4345 26.7541 20.1597 26.5043C18.7359 25.1678 17.2995 23.8564 15.8881 22.5074C15.6508 22.2826 15.4634 21.9703 15.351 21.6706C14.9763 20.6464 14.6516 19.6097 14.3018 18.573C14.0395 17.7736 13.9521 17.7361 13.1652 17.9984C13.0903 17.986 13.0278 18.0109 12.9029 18.0609Z" fill="white"/>
<path d="M37.0216 37.3708C36.9841 35.6347 37.4712 33.9735 37.8334 32.3123C38.7452 28.1405 39.682 23.9813 40.5813 19.822C40.6937 19.2849 40.931 18.9477 41.4181 18.6854C43.1543 17.7362 44.853 16.7369 46.5766 15.7502C46.6515 15.7002 46.739 15.6628 46.8264 15.6128C47.2386 15.4005 47.6508 15.4879 47.8506 15.8376C48.0505 16.1874 47.9505 16.5995 47.5508 16.8369C46.9638 17.1866 46.3643 17.5238 45.7647 17.8611C44.6281 18.5106 43.479 19.1476 42.3549 19.8095C42.1676 19.922 41.9802 20.1468 41.9427 20.3591C40.8311 25.2928 39.7444 30.2389 38.6578 35.1725C38.3455 36.5714 38.4704 37.9953 38.5579 39.4067C38.7327 41.9547 38.9076 44.5028 39.07 47.0508C39.1074 47.6128 38.8451 47.9626 38.3955 47.9875C37.9708 48.0125 37.6836 47.7127 37.6461 47.1632C37.4587 44.5402 37.2964 41.9048 37.1215 39.2818C37.0965 38.6448 37.0715 38.0078 37.0216 37.3708Z" fill="white"/>
<path d="M16.0007 34.6103C15.7884 35.5596 15.601 36.4089 15.4137 37.2583C14.6768 40.5432 13.9274 43.8156 13.1904 47.1006C13.1654 47.213 13.1405 47.3129 13.1155 47.4128C12.9906 47.825 12.6409 48.0498 12.2786 47.9749C11.879 47.8874 11.6416 47.5127 11.7416 47.0756C11.9539 46.1138 12.1662 45.1646 12.3911 44.2028C13.103 41.0553 13.8149 37.9202 14.5394 34.7727C14.6018 34.5229 14.7517 34.2356 14.9516 34.0857C15.1139 33.9733 15.4512 33.9983 15.6385 34.0857C15.8009 34.1981 15.9008 34.4604 16.0007 34.6103Z" fill="white"/>
<path d="M47.1641 4.28418C47.6263 4.28418 47.9135 4.53398 47.951 4.90869C47.9885 5.30838 47.7262 5.62064 47.264 5.69558C46.1274 5.88293 44.9908 6.07028 43.8542 6.25764C41.606 6.61986 39.3702 6.99456 37.122 7.3318C36.8347 7.36927 36.435 7.31931 36.2352 7.14445C35.798 6.78223 36.0603 6.09527 36.6598 5.99534C37.759 5.7955 38.8706 5.62064 39.9822 5.44577C42.2555 5.07106 44.5287 4.70885 46.8019 4.33414C46.9268 4.30916 47.0642 4.29667 47.1641 4.28418Z" fill="white"/>
<path d="M18.286 12.103C18.5607 13.5143 18.923 14.7634 19.6849 15.85C19.8722 16.1123 20.0096 16.3871 19.8472 16.7119C19.6099 17.2115 18.9355 17.2864 18.6357 16.7743C18.1361 15.8875 17.6989 14.9507 17.2992 14.0264C17.0994 13.5768 17.0369 13.0772 16.8871 12.5401C16.7372 12.7275 16.6248 12.8898 16.4999 13.0272C16.2251 13.3145 15.9003 13.352 15.5756 13.1147C15.2633 12.8898 15.1884 12.5526 15.3882 12.2403C15.8504 11.5159 16.35 10.8289 16.8621 10.142C17.0869 9.84222 17.4366 9.81723 17.7489 10.0171C18.4234 10.4667 19.0853 10.9289 19.7348 11.416C20.0596 11.6533 20.1095 12.0655 19.9097 12.3652C19.6974 12.69 19.2852 12.7649 18.923 12.5401C18.7481 12.4152 18.5732 12.2903 18.286 12.103Z" fill="white"/>
<path d="M29.8776 12.0905C29.6028 12.2779 29.4154 12.4153 29.2156 12.5277C28.8658 12.74 28.4786 12.6776 28.2538 12.3778C28.0165 12.0656 28.079 11.6409 28.4162 11.3911C29.0532 10.9165 29.7027 10.4543 30.3647 10.0172C30.7394 9.76736 31.1016 9.85479 31.3764 10.2295C31.8135 10.829 32.2507 11.441 32.6629 12.0656C32.9377 12.4652 32.8752 12.8649 32.5505 13.1023C32.2257 13.3396 31.826 13.2646 31.5263 12.8899C31.4388 12.7775 31.3514 12.6776 31.239 12.5152C31.1016 13.0273 31.0391 13.5144 30.8518 13.9516C30.4646 14.8634 30.0649 15.7752 29.5903 16.6495C29.3155 17.1616 28.8658 17.249 28.5036 16.9742C28.1414 16.7119 28.1414 16.3122 28.4786 15.8251C29.253 14.726 29.6028 13.477 29.8776 12.0905Z" fill="white"/>
</g>
<defs>
<clipPath id="clip0_18719_4519">
<rect width="48" height="48" fill="white"/>
</clipPath>
</defs>
</svg>
