<svg width="48" height="48" viewBox="0 0 48 48" fill="none" xmlns="http://www.w3.org/2000/svg">
<g clip-path="url(#clip0_18677_509)">
<path d="M2.89511 47.9999C2.19639 47.3761 2.23382 46.7772 3.1197 46.4528C4.97882 45.7665 6.8504 45.0927 8.7719 44.5562C11.3422 43.845 13.9624 43.2835 16.5702 42.6721C16.8821 42.5973 17.0069 42.485 17.0318 42.1606C17.0818 41.5118 17.194 40.8629 17.2939 40.2017C17.2315 40.2266 17.1691 40.2266 17.1441 40.264C16.2333 41.3496 14.1746 41.3995 13.2887 39.6402C12.5525 38.1679 11.8912 36.6581 11.2424 35.1484C10.3191 33.0148 9.35833 30.8811 8.55979 28.6976C7.96088 27.0756 7.59904 25.3537 7.13738 23.6818C6.83793 22.5838 6.56343 21.4858 6.26397 20.3878C6.20159 20.1632 6.07681 19.9261 5.92709 19.739C4.16779 17.6178 2.39602 15.5092 0.624254 13.4005C0.536913 13.2882 0.437095 13.1884 0.362231 13.0761C0.137641 12.7267 0.18755 12.3898 0.487004 12.1029C0.761503 11.8409 1.22316 11.8409 1.49766 12.1403C1.87198 12.5396 2.20886 12.9638 2.55823 13.388C4.10541 15.2347 5.66506 17.0813 7.19977 18.9404C7.41188 19.19 7.57408 19.5144 7.66143 19.8263C8.3352 22.2968 8.92163 24.7922 9.67026 27.2503C10.107 28.6851 10.7308 30.0701 11.3297 31.4551C12.303 33.7634 13.3136 36.0467 14.3243 38.3425C14.4366 38.5921 14.5613 38.8541 14.7236 39.0787C14.9981 39.478 15.3973 39.6152 15.7716 39.478C16.1335 39.3407 16.3581 38.9414 16.2458 38.4673C16.0586 37.6563 15.834 36.8453 15.5845 36.0467C14.5613 32.7278 13.9624 29.3464 14.0623 25.8528C14.0747 25.4161 14.1496 24.9794 14.2494 24.5676C14.499 23.5445 15.2102 22.9331 16.2707 23.008C17.0942 23.0579 17.9177 23.2825 18.7163 23.5071C19.39 23.6942 20.0264 23.9937 20.6877 24.2183C21.6359 24.5302 22.422 24.1809 22.9211 23.2326C21.873 22.8084 20.8249 22.3841 19.7768 21.9599C18.7787 21.5606 17.7805 21.1614 16.8073 20.7371C16.5702 20.6373 16.3456 20.4377 16.1709 20.238C15.8715 19.9012 15.6094 19.5268 15.3599 19.1525C14.4615 17.8175 13.1888 17.0813 11.6292 16.8318C11.0802 16.7444 10.7683 16.4699 10.5312 15.9583C8.3352 11.1671 6.12672 6.38829 3.91825 1.59702C3.85586 1.45977 3.781 1.31005 3.73109 1.1728C3.60632 0.773525 3.74357 0.474071 4.10541 0.274435C4.44229 0.087276 4.82909 0.199571 5.0412 0.52398C5.12854 0.648752 5.19093 0.79848 5.25331 0.935729C6.9627 4.629 8.67208 8.33474 10.369 12.028C10.4439 12.1777 10.5187 12.3399 10.5561 12.4398C11.3173 11.4915 12.0534 10.5058 12.8644 9.59494C13.2138 9.19567 13.4384 8.7964 13.6006 8.28483C14.474 5.37763 16.0087 2.93209 18.8036 1.54711C21.4363 0.237003 24.1813 -0.212178 27.0136 0.935729C28.9601 1.7218 30.37 3.1442 31.5055 4.87854C31.6427 5.10313 31.8673 5.29029 32.1044 5.42754C35.0864 7.18683 36.7958 9.71972 36.8332 13.2508C36.8332 13.6126 36.7584 13.9745 36.8083 14.3488C36.8832 14.2115 36.958 14.0618 37.0204 13.9246C39.0168 9.59494 41.0131 5.26534 43.0095 0.923252C43.0719 0.79848 43.1218 0.66123 43.1966 0.548934C43.4088 0.224526 43.7956 0.0997533 44.1324 0.286912C44.4943 0.474071 44.644 0.773525 44.5192 1.18527C44.4818 1.32252 44.4194 1.4473 44.357 1.57207C42.1236 6.41324 39.8902 11.2544 37.6567 16.0956C37.4945 16.4325 37.3199 16.7319 36.9081 16.7818C34.8618 17.0314 33.427 18.1918 32.3789 19.8762C32.0295 20.4377 31.5554 20.7496 30.944 20.9867C29.1847 21.6604 27.4503 22.3841 25.716 23.0953C25.5912 23.1452 25.4665 23.2076 25.3417 23.27C25.7784 24.1933 26.6144 24.5552 27.5502 24.2432C28.5234 23.9188 29.4717 23.5071 30.4574 23.2451C31.1187 23.0704 31.8423 23.0329 32.5161 23.0953C33.2398 23.1577 33.7763 23.6443 33.9136 24.3555C34.0882 25.2789 34.2255 26.2271 34.2005 27.1754C34.1007 30.5443 33.4644 33.8133 32.3789 36.995C32.2167 37.4816 32.1044 37.9807 32.0045 38.4923C31.9047 38.9789 32.1044 39.3532 32.4662 39.5029C32.853 39.6651 33.2897 39.5154 33.5392 39.0787C33.8262 38.5796 34.0758 38.068 34.3004 37.5315C35.6604 34.3498 37.0828 31.1806 38.343 27.9615C38.9419 26.4268 39.2414 24.7673 39.6781 23.1577C39.9775 22.0472 40.252 20.9368 40.5639 19.8263C40.6513 19.5393 40.7885 19.2399 40.9882 19.0153C42.8223 16.8068 44.6565 14.6233 46.5031 12.4273C47.0521 11.766 47.4888 11.7785 48.0004 12.4522C48.0004 12.602 48.0004 12.7642 48.0004 12.9139C47.8881 13.0636 47.7883 13.2133 47.6635 13.3631C45.9916 15.3594 44.3321 17.3558 42.6476 19.3272C42.2359 19.8138 41.9364 20.3129 41.7992 20.9492C41.6245 21.7727 41.3874 22.5713 41.1628 23.3823C40.7012 25.0792 40.3893 26.826 39.7529 28.4481C38.3555 31.9667 36.8083 35.4229 35.2985 38.904C35.1239 39.3158 34.9117 39.7275 34.6497 40.0769C33.7763 41.2622 32.2042 41.387 31.1311 40.3888C31.0688 40.3389 31.0064 40.3015 30.8941 40.2141C30.9939 40.9378 31.1062 41.5991 31.1561 42.2604C31.181 42.5599 31.3183 42.6472 31.5803 42.7096C34.213 43.3334 36.8582 43.8949 39.4535 44.6061C41.3375 45.1177 43.1842 45.7915 45.0058 46.4652C45.9292 46.8021 45.9791 47.3885 45.2679 48.0249C45.0807 48.0249 44.8935 48.0249 44.7064 48.0249C43.833 47.6506 42.9721 47.2014 42.0737 46.9144C38.318 45.6916 34.4626 44.8557 30.6071 44.0197C30.0082 43.8949 29.846 43.7202 29.7711 43.1338C29.7087 42.6098 29.6339 42.0857 29.5715 41.5617C29.4717 40.8505 29.3718 40.1393 29.2596 39.3282C25.7659 42.0608 22.3222 41.9609 18.9034 39.2659C18.8161 39.8648 18.7537 40.3514 18.6788 40.8255C18.6165 41.3121 18.5416 41.8112 18.4792 42.3103C18.2671 44.0197 18.3919 43.845 16.7199 44.2193C12.8644 45.0678 9.00897 45.9038 5.27827 47.2014C4.64193 47.426 4.04302 47.7629 3.43164 48.0498C3.26943 47.9999 3.08227 47.9999 2.89511 47.9999ZM35.2362 13.7124C35.2611 13.4754 35.2985 13.2882 35.2985 13.1135C35.3859 10.4933 33.4644 7.62354 30.919 6.55049C29.5091 5.95159 28.0118 5.76443 26.5021 5.75195C25.8782 5.75195 25.5164 5.46497 25.5164 5.00331C25.5164 4.52918 25.8782 4.26716 26.5021 4.26716C26.5769 4.26716 26.6518 4.26716 26.7391 4.27963C27.5751 4.34202 28.3986 4.39193 29.297 4.46679C28.3487 3.36879 27.2507 2.57025 25.8907 2.1585C21.9728 0.948206 17.4561 3.06934 15.6968 6.93729C15.6469 7.04958 15.6094 7.17436 15.6094 7.17436C16.932 6.6004 18.292 5.92663 19.702 5.42754C20.8249 5.02827 22.0103 4.84111 23.1831 4.57909C23.5824 4.49175 23.8819 4.69138 24.0066 5.09065C24.1189 5.4525 23.9442 5.83929 23.5949 5.97654C23.4576 6.03893 23.2954 6.0514 23.1457 6.08884C22.3097 6.28847 21.4737 6.42572 20.6502 6.67527C16.645 7.87308 13.5257 10.1939 11.5668 13.962C11.3048 14.4611 11.7041 15.322 12.2531 15.4593C13.6006 15.7961 14.8608 16.2952 15.7966 17.3932C15.8091 17.4057 15.8465 17.4057 15.8964 17.4182C18.3794 14.8354 21.5361 13.5378 24.9923 12.8765C28.4485 12.1902 31.8423 12.4398 35.2362 13.7124ZM24.1064 24.2183C24.0066 24.3306 23.9567 24.393 23.8943 24.4678C22.8712 25.753 21.5112 26.1398 19.989 25.5783C19.4649 25.3911 18.9533 25.1541 18.4168 24.9919C17.768 24.7922 17.1067 24.6051 16.4329 24.4803C15.8839 24.393 15.6843 24.5676 15.6094 25.1042C15.5346 25.7405 15.4722 26.3769 15.4847 27.0132C15.5096 29.4962 15.9962 31.9292 16.5577 34.3373C16.6201 34.5994 16.7324 34.8863 16.8946 35.0984C18.0051 36.5583 19.3027 37.8185 20.8873 38.7792C22.7839 39.9396 24.7303 40.2017 26.7641 39.1286C28.5733 38.1803 30.0331 36.8328 31.2933 35.2357C31.3807 35.1234 31.4431 34.9612 31.4805 34.8115C31.8299 33.1146 32.2042 31.4052 32.4912 29.6958C32.7407 28.236 32.828 26.7636 32.6035 25.2789C32.4912 24.5053 32.279 24.3306 31.5179 24.4928C30.8442 24.6425 30.1704 24.8671 29.5091 25.0792C28.8478 25.2913 28.199 25.6157 27.5252 25.7405C26.0903 26.0275 24.9674 25.4411 24.1064 24.2183ZM16.8322 18.6285C17.0818 19.1276 17.4436 19.427 17.9801 19.6391C19.9266 20.3878 21.8356 21.1988 23.782 21.9599C23.9817 22.0348 24.2686 22.0223 24.4808 21.9474C26.3773 21.1988 28.2489 20.4002 30.1454 19.6766C30.7943 19.427 31.181 18.9903 31.5179 18.4164C31.2809 18.1668 31.0688 17.8923 30.8192 17.6677C30.2577 17.1562 29.6838 16.6446 29.1098 16.158C28.6606 15.7712 28.5483 15.3719 28.8478 14.9976C29.1348 14.6358 29.5715 14.6233 30.0456 14.9851C30.0955 15.0226 30.1454 15.06 30.1953 15.0974C30.9814 15.7961 31.7675 16.5073 32.5161 17.1811C32.9653 16.8567 33.402 16.4699 33.8886 16.1954C34.3752 15.9209 34.9242 15.7462 35.4607 15.5341C30.1704 12.577 20.6877 14.0493 16.8322 18.6285Z" fill="#EDE2D7"/>
<path d="M24.118 37.5068C23.7062 37.382 23.3069 37.2947 22.9451 37.12C21.9843 36.6583 21.2232 35.9471 20.5495 35.1486C20.2001 34.7368 20.3124 34.2003 20.824 33.9882C21.7473 33.6139 22.6706 33.252 23.6313 33.0025C24.068 32.8902 24.6046 32.9775 25.0537 33.1023C25.8149 33.3144 26.551 33.6139 27.2747 33.9258C27.911 34.1878 28.0483 34.7742 27.5617 35.2234C26.8505 35.8847 26.0894 36.5086 25.3033 37.0701C24.9789 37.3196 24.5172 37.3695 24.118 37.5068ZM22.4834 34.9489C23.7935 36.2341 24.4174 36.284 25.6776 34.9365C24.617 34.3251 23.5565 34.3375 22.4834 34.9489Z" fill="#EDE2D7"/>
<path d="M24.3436 32.1785C23.5201 32.1536 22.8463 31.8292 22.3098 31.2303C22.0103 30.9059 22.0228 30.4692 22.3098 30.1822C22.5843 29.9077 22.9836 29.8952 23.3204 30.1572C24.2562 30.8684 24.4559 30.8684 25.3667 30.1198C25.6911 29.8578 26.1029 29.8578 26.3774 30.1323C26.6643 30.4068 26.7018 30.8185 26.4273 31.1429C25.8908 31.8042 25.1795 32.1536 24.3436 32.1785Z" fill="#EDE2D7"/>
</g>
<defs>
<clipPath id="clip0_18677_509">
<rect width="48" height="48" fill="white"/>
</clipPath>
</defs>
</svg>
